<svg xmlns="http://www.w3.org/2000/svg" xmlns:xlink="http://www.w3.org/1999/xlink" width="50" zoomAndPan="magnify" viewBox="0 0 37.5 37.499999" height="50" preserveAspectRatio="xMidYMid meet" version="1.0"><defs><g/><clipPath id="328f5c3cc5"><path d="M 0 6.011719 L 37 6.011719 L 37 31 L 0 31 Z M 0 6.011719 " clip-rule="nonzero"/></clipPath></defs><g clip-path="url(#328f5c3cc5)"><path fill="#323233" d="M 36.957031 13.738281 L 36.957031 13.03125 C 36.957031 11.699219 36.0625 10.375 34.972656 10.089844 L 20.488281 6.300781 C 19.398438 6.011719 17.609375 6.011719 16.519531 6.300781 L 2.035156 10.089844 C 0.945312 10.375 0.0507812 11.699219 0.0507812 13.03125 L 0.0507812 13.738281 L 0.988281 13.738281 L 0.988281 13.59375 C 0.988281 12.34375 1.875 11.101562 2.964844 10.824219 L 16.597656 7.410156 C 17.109375 7.28125 17.777344 7.210938 18.503906 7.210938 C 18.582031 7.210938 18.664062 7.308594 18.753906 7.480469 C 18.671875 7.480469 18.59375 7.480469 18.503906 7.480469 C 17.804688 7.480469 17.152344 7.550781 16.660156 7.667969 L 3.027344 11.082031 C 2.054688 11.324219 1.257812 12.449219 1.257812 13.59375 L 1.257812 13.738281 L 0.0507812 13.738281 L 0.0507812 23.976562 C 0.0507812 25.308594 0.945312 26.628906 2.035156 26.917969 L 16.519531 30.707031 C 17.609375 30.992188 19.398438 30.992188 20.488281 30.707031 L 34.972656 26.917969 C 36.0625 26.628906 36.957031 25.308594 36.957031 23.976562 L 36.957031 13.738281 L 35.75 13.738281 L 35.75 13.59375 C 35.75 12.460938 34.953125 11.332031 33.980469 11.082031 L 33.542969 10.976562 L 34.042969 10.824219 C 35.132812 11.089844 36.015625 12.335938 36.015625 13.59375 L 36.015625 13.738281 Z M 36.957031 13.738281 " fill-opacity="1" fill-rule="nonzero"/></g><path fill="#ffffff" d="M 35.75 23.421875 C 35.75 24.554688 34.953125 25.683594 33.980469 25.933594 L 20.335938 29.339844 C 19.851562 29.464844 19.199219 29.527344 18.496094 29.527344 C 17.789062 29.527344 17.144531 29.457031 16.652344 29.339844 L 3.027344 25.921875 C 2.054688 25.683594 1.257812 24.554688 1.257812 23.410156 L 1.257812 13.738281 L 0.988281 13.738281 L 0.988281 23.421875 C 0.988281 24.671875 1.875 25.914062 2.964844 26.191406 L 16.609375 29.597656 C 17.117188 29.722656 17.789062 29.796875 18.511719 29.796875 C 19.238281 29.796875 19.90625 29.722656 20.417969 29.597656 L 34.042969 26.183594 C 35.132812 25.914062 36.015625 24.671875 36.015625 23.410156 L 36.015625 13.730469 L 35.75 13.730469 Z M 35.75 23.421875 " fill-opacity="1" fill-rule="nonzero"/><path fill="#ffffff" d="M 34.042969 10.816406 L 20.40625 7.410156 C 19.898438 7.28125 19.226562 7.210938 18.503906 7.210938 C 17.789062 7.210938 17.109375 7.28125 16.597656 7.410156 L 2.964844 10.816406 C 1.875 11.082031 0.988281 12.324219 0.988281 13.585938 L 0.988281 13.730469 L 1.257812 13.730469 L 1.257812 13.585938 C 1.257812 12.449219 2.054688 11.324219 3.027344 11.074219 L 16.671875 7.667969 C 17.152344 7.542969 17.804688 7.480469 18.511719 7.480469 C 19.210938 7.480469 19.863281 7.550781 20.355469 7.667969 L 33.996094 11.074219 C 34.972656 11.316406 35.765625 12.441406 35.765625 13.585938 L 35.765625 13.730469 L 36.035156 13.730469 L 36.035156 13.585938 C 36.015625 12.335938 35.132812 11.089844 34.042969 10.816406 Z M 34.042969 10.816406 " fill-opacity="1" fill-rule="nonzero"/><g fill="#f8f8f0" fill-opacity="1"><g transform="translate(7.609149, 19.260819)"><g><path d="M 2.53125 -4.796875 C 2.851562 -4.785156 3.15625 -4.71875 3.4375 -4.59375 C 3.71875 -4.476562 3.972656 -4.3125 4.203125 -4.09375 C 4.210938 -4.070312 4.210938 -4.054688 4.203125 -4.046875 L 3.890625 -3.75 C 3.890625 -3.738281 3.890625 -3.734375 3.890625 -3.734375 C 3.890625 -3.742188 3.890625 -3.742188 3.890625 -3.734375 C 3.890625 -3.734375 3.882812 -3.734375 3.875 -3.734375 C 3.863281 -3.734375 3.859375 -3.734375 3.859375 -3.734375 C 3.859375 -3.734375 3.859375 -3.738281 3.859375 -3.75 C 3.859375 -3.75 3.851562 -3.75 3.84375 -3.75 C 3.84375 -3.757812 3.84375 -3.757812 3.84375 -3.75 C 3.6875 -4.050781 3.492188 -4.285156 3.265625 -4.453125 C 3.035156 -4.628906 2.789062 -4.722656 2.53125 -4.734375 C 2.53125 -4.734375 2.523438 -4.734375 2.515625 -4.734375 C 2.492188 -4.734375 2.476562 -4.734375 2.46875 -4.734375 C 2.457031 -4.734375 2.445312 -4.734375 2.4375 -4.734375 C 1.988281 -4.710938 1.609375 -4.476562 1.296875 -4.03125 C 1.140625 -3.8125 1.019531 -3.554688 0.9375 -3.265625 C 0.851562 -2.984375 0.8125 -2.691406 0.8125 -2.390625 C 0.8125 -2.066406 0.851562 -1.757812 0.9375 -1.46875 C 1.03125 -1.1875 1.148438 -0.9375 1.296875 -0.71875 C 1.453125 -0.5 1.628906 -0.328125 1.828125 -0.203125 C 2.035156 -0.0859375 2.253906 -0.03125 2.484375 -0.03125 C 2.753906 -0.03125 3.007812 -0.117188 3.25 -0.296875 C 3.488281 -0.472656 3.6875 -0.710938 3.84375 -1.015625 C 3.851562 -1.015625 3.859375 -1.015625 3.859375 -1.015625 C 3.859375 -1.023438 3.859375 -1.03125 3.859375 -1.03125 C 3.859375 -1.03125 3.863281 -1.03125 3.875 -1.03125 C 3.875 -1.03125 3.878906 -1.03125 3.890625 -1.03125 C 3.890625 -1.03125 3.890625 -1.023438 3.890625 -1.015625 L 4.203125 -0.71875 C 4.210938 -0.707031 4.210938 -0.691406 4.203125 -0.671875 C 3.972656 -0.453125 3.71875 -0.28125 3.4375 -0.15625 C 3.15625 -0.0390625 2.851562 0.0195312 2.53125 0.03125 C 2.53125 0.03125 2.523438 0.03125 2.515625 0.03125 C 2.503906 0.03125 2.492188 0.03125 2.484375 0.03125 C 2.160156 0.03125 1.851562 -0.0234375 1.5625 -0.140625 C 1.269531 -0.265625 1.007812 -0.441406 0.78125 -0.671875 C 0.550781 -0.898438 0.375 -1.160156 0.25 -1.453125 C 0.125 -1.753906 0.0625 -2.066406 0.0625 -2.390625 C 0.0625 -2.710938 0.125 -3.019531 0.25 -3.3125 C 0.375 -3.601562 0.550781 -3.863281 0.78125 -4.09375 C 1 -4.3125 1.25 -4.476562 1.53125 -4.59375 C 1.820312 -4.71875 2.125 -4.785156 2.4375 -4.796875 C 2.445312 -4.796875 2.453125 -4.796875 2.453125 -4.796875 C 2.460938 -4.796875 2.46875 -4.796875 2.46875 -4.796875 C 2.46875 -4.796875 2.472656 -4.796875 2.484375 -4.796875 C 2.492188 -4.796875 2.5 -4.796875 2.5 -4.796875 C 2.507812 -4.796875 2.515625 -4.796875 2.515625 -4.796875 C 2.523438 -4.796875 2.53125 -4.796875 2.53125 -4.796875 Z M 2.53125 -4.796875 "/></g></g></g><g fill="#f8f8f0" fill-opacity="1"><g transform="translate(11.892229, 19.260819)"><g><path d="M 4.546875 0.03125 L 3.4375 0.03125 C 3.414062 0.03125 3.40625 0.0195312 3.40625 0 C 3.40625 -0.0195312 3.414062 -0.03125 3.4375 -0.03125 C 3.519531 -0.03125 3.578125 -0.0546875 3.609375 -0.109375 C 3.660156 -0.179688 3.660156 -0.265625 3.609375 -0.359375 L 3.453125 -0.75 L 0.84375 -0.75 L 0.671875 -0.359375 C 0.628906 -0.265625 0.628906 -0.179688 0.671875 -0.109375 C 0.710938 -0.0546875 0.769531 -0.03125 0.84375 -0.03125 C 0.875 -0.03125 0.890625 -0.0195312 0.890625 0 C 0.890625 0.0195312 0.875 0.03125 0.84375 0.03125 L 0.109375 0.03125 C 0.078125 0.03125 0.0625 0.0195312 0.0625 0 C 0.0625 -0.0195312 0.078125 -0.03125 0.109375 -0.03125 C 0.203125 -0.03125 0.296875 -0.0625 0.390625 -0.125 C 0.492188 -0.195312 0.566406 -0.285156 0.609375 -0.390625 L 0.78125 -0.796875 L 2.109375 -3.921875 L 2.484375 -4.78125 C 2.484375 -4.789062 2.484375 -4.796875 2.484375 -4.796875 C 2.492188 -4.796875 2.5 -4.796875 2.5 -4.796875 C 2.507812 -4.796875 2.515625 -4.796875 2.515625 -4.796875 C 2.515625 -4.796875 2.519531 -4.796875 2.53125 -4.796875 C 2.53125 -4.785156 2.53125 -4.78125 2.53125 -4.78125 C 2.539062 -4.78125 2.546875 -4.78125 2.546875 -4.78125 L 4.421875 -0.390625 C 4.460938 -0.285156 4.53125 -0.195312 4.625 -0.125 C 4.726562 -0.0625 4.828125 -0.03125 4.921875 -0.03125 C 4.941406 -0.03125 4.953125 -0.0195312 4.953125 0 C 4.953125 0.0195312 4.941406 0.03125 4.921875 0.03125 Z M 0.859375 -0.8125 L 3.421875 -0.8125 L 2.140625 -3.8125 Z M 0.859375 -0.8125 "/></g></g></g><g fill="#f8f8f0" fill-opacity="1"><g transform="translate(16.923475, 19.260819)"><g><path d="M 3 -4.796875 C 3.289062 -4.796875 3.554688 -4.722656 3.796875 -4.578125 C 4.035156 -4.441406 4.222656 -4.253906 4.359375 -4.015625 C 4.503906 -3.773438 4.578125 -3.507812 4.578125 -3.21875 C 4.578125 -2.925781 4.503906 -2.660156 4.359375 -2.421875 C 4.222656 -2.179688 4.035156 -1.988281 3.796875 -1.84375 C 3.554688 -1.695312 3.289062 -1.625 3 -1.625 L 1.1875 -1.625 L 1.1875 -0.375 C 1.1875 -0.28125 1.21875 -0.195312 1.28125 -0.125 C 1.351562 -0.0625 1.4375 -0.03125 1.53125 -0.03125 C 1.550781 -0.03125 1.5625 -0.0195312 1.5625 0 C 1.5625 0.0195312 1.550781 0.03125 1.53125 0.03125 L 0.109375 0.03125 C 0.078125 0.03125 0.0625 0.0195312 0.0625 0 C 0.0625 -0.0195312 0.078125 -0.03125 0.109375 -0.03125 C 0.203125 -0.03125 0.28125 -0.0625 0.34375 -0.125 C 0.414062 -0.195312 0.453125 -0.28125 0.453125 -0.375 L 0.453125 -4.390625 C 0.453125 -4.484375 0.414062 -4.5625 0.34375 -4.625 C 0.28125 -4.695312 0.203125 -4.734375 0.109375 -4.734375 C 0.078125 -4.734375 0.0625 -4.742188 0.0625 -4.765625 C 0.0625 -4.785156 0.078125 -4.796875 0.109375 -4.796875 Z M 1.1875 -4.734375 L 1.1875 -1.703125 L 3 -1.703125 C 3.15625 -1.703125 3.296875 -1.769531 3.421875 -1.90625 C 3.546875 -2.039062 3.644531 -2.222656 3.71875 -2.453125 C 3.789062 -2.679688 3.828125 -2.9375 3.828125 -3.21875 C 3.828125 -3.5 3.789062 -3.753906 3.71875 -3.984375 C 3.644531 -4.210938 3.546875 -4.394531 3.421875 -4.53125 C 3.296875 -4.664062 3.15625 -4.734375 3 -4.734375 Z M 1.1875 -4.734375 "/></g></g></g><g fill="#f8f8f0" fill-opacity="1"><g transform="translate(21.577206, 19.260819)"><g><path d="M 4.546875 0.03125 L 3.71875 0.03125 C 3.707031 0.03125 3.703125 0.0234375 3.703125 0.015625 L 2.578125 -1.625 L 1.1875 -1.625 L 1.1875 -0.375 C 1.1875 -0.28125 1.21875 -0.195312 1.28125 -0.125 C 1.351562 -0.0625 1.4375 -0.03125 1.53125 -0.03125 C 1.550781 -0.03125 1.5625 -0.0195312 1.5625 0 C 1.5625 0.0195312 1.550781 0.03125 1.53125 0.03125 L 0.109375 0.03125 C 0.078125 0.03125 0.0625 0.0195312 0.0625 0 C 0.0625 -0.0195312 0.078125 -0.03125 0.109375 -0.03125 C 0.203125 -0.03125 0.28125 -0.0625 0.34375 -0.125 C 0.414062 -0.195312 0.453125 -0.28125 0.453125 -0.375 L 0.453125 -4.390625 C 0.453125 -4.484375 0.414062 -4.5625 0.34375 -4.625 C 0.28125 -4.695312 0.203125 -4.734375 0.109375 -4.734375 C 0.078125 -4.734375 0.0625 -4.742188 0.0625 -4.765625 C 0.0625 -4.785156 0.078125 -4.796875 0.109375 -4.796875 L 3 -4.796875 C 3.007812 -4.796875 3.019531 -4.796875 3.03125 -4.796875 C 3.3125 -4.796875 3.566406 -4.722656 3.796875 -4.578125 C 4.035156 -4.429688 4.222656 -4.238281 4.359375 -4 C 4.503906 -3.769531 4.578125 -3.507812 4.578125 -3.21875 C 4.578125 -2.976562 4.523438 -2.753906 4.421875 -2.546875 C 4.328125 -2.347656 4.191406 -2.171875 4.015625 -2.015625 C 3.847656 -1.867188 3.65625 -1.757812 3.4375 -1.6875 L 4.3125 -0.390625 C 4.320312 -0.390625 4.328125 -0.390625 4.328125 -0.390625 C 4.390625 -0.296875 4.476562 -0.210938 4.59375 -0.140625 C 4.71875 -0.0664062 4.828125 -0.03125 4.921875 -0.03125 C 4.941406 -0.03125 4.953125 -0.0195312 4.953125 0 C 4.953125 0.0195312 4.941406 0.03125 4.921875 0.03125 Z M 3 -4.734375 L 1.1875 -4.734375 L 1.1875 -1.703125 L 3 -1.703125 C 3.007812 -1.703125 3.015625 -1.703125 3.015625 -1.703125 C 3.117188 -1.703125 3.21875 -1.738281 3.3125 -1.8125 C 3.46875 -1.925781 3.59375 -2.109375 3.6875 -2.359375 C 3.78125 -2.617188 3.828125 -2.90625 3.828125 -3.21875 C 3.828125 -3.488281 3.789062 -3.738281 3.71875 -3.96875 C 3.644531 -4.195312 3.546875 -4.378906 3.421875 -4.515625 C 3.304688 -4.648438 3.171875 -4.722656 3.015625 -4.734375 C 3.015625 -4.734375 3.007812 -4.734375 3 -4.734375 Z M 3 -4.734375 "/></g></g></g><g fill="#f8f8f0" fill-opacity="1"><g transform="translate(26.608452, 19.260819)"><g><path d="M 1.15625 0.03125 L 0.109375 0.03125 C 0.078125 0.03125 0.0625 0.0195312 0.0625 0 C 0.0625 -0.0195312 0.078125 -0.03125 0.109375 -0.03125 C 0.203125 -0.03125 0.28125 -0.0625 0.34375 -0.125 C 0.414062 -0.195312 0.453125 -0.28125 0.453125 -0.375 L 0.453125 -4.390625 C 0.453125 -4.484375 0.414062 -4.5625 0.34375 -4.625 C 0.28125 -4.695312 0.203125 -4.734375 0.109375 -4.734375 C 0.078125 -4.734375 0.0625 -4.742188 0.0625 -4.765625 C 0.0625 -4.785156 0.078125 -4.796875 0.109375 -4.796875 L 1.53125 -4.796875 C 1.550781 -4.796875 1.5625 -4.785156 1.5625 -4.765625 C 1.5625 -4.742188 1.550781 -4.734375 1.53125 -4.734375 C 1.4375 -4.734375 1.351562 -4.695312 1.28125 -4.625 C 1.21875 -4.5625 1.1875 -4.484375 1.1875 -4.390625 L 1.1875 -0.375 C 1.1875 -0.28125 1.21875 -0.195312 1.28125 -0.125 C 1.351562 -0.0625 1.4375 -0.03125 1.53125 -0.03125 C 1.550781 -0.03125 1.5625 -0.0195312 1.5625 0 C 1.5625 0.0195312 1.550781 0.03125 1.53125 0.03125 Z M 1.15625 0.03125 "/></g></g></g><g fill="#f8f8f0" fill-opacity="1"><g transform="translate(7.366465, 22.901667)"><g><path d="M 0.53125 -1.1875 C 0.53125 -1.195312 0.53125 -1.203125 0.53125 -1.203125 C 0.539062 -1.210938 0.546875 -1.21875 0.546875 -1.21875 L 0.71875 -1.21875 C 0.71875 -1.21875 0.71875 -1.210938 0.71875 -1.203125 C 0.726562 -1.203125 0.734375 -1.195312 0.734375 -1.1875 L 0.734375 -0.015625 C 0.734375 -0.015625 0.726562 -0.0078125 0.71875 0 L 0.546875 0 C 0.546875 0 0.539062 0 0.53125 0 C 0.53125 -0.0078125 0.53125 -0.015625 0.53125 -0.015625 L 0.53125 -0.515625 L 0.296875 -0.515625 L 0.296875 -0.015625 C 0.296875 -0.015625 0.289062 -0.0078125 0.28125 0 L 0.109375 0 C 0.109375 0 0.101562 0 0.09375 0 C 0.09375 -0.0078125 0.09375 -0.015625 0.09375 -0.015625 L 0.09375 -1.1875 C 0.09375 -1.195312 0.09375 -1.203125 0.09375 -1.203125 C 0.101562 -1.210938 0.109375 -1.21875 0.109375 -1.21875 L 0.28125 -1.21875 C 0.28125 -1.21875 0.28125 -1.210938 0.28125 -1.203125 C 0.289062 -1.203125 0.296875 -1.195312 0.296875 -1.1875 L 0.296875 -0.703125 L 0.53125 -0.703125 Z M 0.53125 -1.1875 "/></g></g></g><g fill="#f8f8f0" fill-opacity="1"><g transform="translate(8.705897, 22.901667)"><g><path d="M 0.40625 0.015625 C 0.300781 0.015625 0.21875 -0.015625 0.15625 -0.078125 C 0.101562 -0.140625 0.078125 -0.21875 0.078125 -0.3125 L 0.078125 -0.890625 C 0.078125 -0.992188 0.101562 -1.078125 0.15625 -1.140625 C 0.21875 -1.203125 0.300781 -1.234375 0.40625 -1.234375 C 0.5 -1.234375 0.578125 -1.203125 0.640625 -1.140625 C 0.703125 -1.078125 0.734375 -0.992188 0.734375 -0.890625 L 0.734375 -0.3125 C 0.734375 -0.21875 0.703125 -0.140625 0.640625 -0.078125 C 0.578125 -0.015625 0.5 0.015625 0.40625 0.015625 Z M 0.40625 -0.15625 C 0.445312 -0.15625 0.476562 -0.164062 0.5 -0.1875 C 0.519531 -0.21875 0.53125 -0.257812 0.53125 -0.3125 L 0.53125 -0.90625 C 0.53125 -0.945312 0.519531 -0.976562 0.5 -1 C 0.476562 -1.03125 0.445312 -1.046875 0.40625 -1.046875 C 0.363281 -1.046875 0.332031 -1.03125 0.3125 -1 C 0.289062 -0.976562 0.28125 -0.945312 0.28125 -0.90625 L 0.28125 -0.3125 C 0.28125 -0.257812 0.289062 -0.21875 0.3125 -0.1875 C 0.332031 -0.164062 0.363281 -0.15625 0.40625 -0.15625 Z M 0.40625 -0.15625 "/></g></g></g><g fill="#f8f8f0" fill-opacity="1"><g transform="translate(10.028048, 22.901667)"><g><path d="M 0.71875 -1.21875 C 0.71875 -1.21875 0.71875 -1.210938 0.71875 -1.203125 C 0.726562 -1.203125 0.734375 -1.195312 0.734375 -1.1875 L 0.734375 -1.0625 C 0.734375 -1.050781 0.726562 -1.046875 0.71875 -1.046875 L 0.5 -1.046875 C 0.488281 -1.046875 0.484375 -1.039062 0.484375 -1.03125 L 0.484375 -0.015625 C 0.484375 -0.015625 0.476562 -0.0078125 0.46875 0 L 0.3125 0 C 0.300781 0 0.289062 0 0.28125 0 C 0.28125 -0.0078125 0.28125 -0.015625 0.28125 -0.015625 L 0.28125 -1.03125 C 0.28125 -1.039062 0.28125 -1.046875 0.28125 -1.046875 L 0.0625 -1.046875 C 0.0625 -1.046875 0.0546875 -1.046875 0.046875 -1.046875 C 0.046875 -1.046875 0.046875 -1.050781 0.046875 -1.0625 L 0.046875 -1.1875 C 0.046875 -1.195312 0.046875 -1.203125 0.046875 -1.203125 C 0.0546875 -1.210938 0.0625 -1.21875 0.0625 -1.21875 Z M 0.71875 -1.21875 "/></g></g></g><g fill="#f8f8f0" fill-opacity="1"><g transform="translate(11.324274, 22.901667)"><g><path d="M 0.703125 -1.0625 C 0.703125 -1.050781 0.695312 -1.046875 0.6875 -1.046875 C 0.6875 -1.046875 0.679688 -1.046875 0.671875 -1.046875 L 0.296875 -1.046875 C 0.296875 -1.046875 0.296875 -1.039062 0.296875 -1.03125 L 0.296875 -0.703125 L 0.53125 -0.703125 C 0.53125 -0.703125 0.53125 -0.695312 0.53125 -0.6875 C 0.539062 -0.6875 0.546875 -0.679688 0.546875 -0.671875 L 0.546875 -0.546875 C 0.546875 -0.535156 0.539062 -0.523438 0.53125 -0.515625 L 0.296875 -0.515625 L 0.296875 -0.1875 C 0.296875 -0.175781 0.296875 -0.171875 0.296875 -0.171875 L 0.671875 -0.171875 C 0.679688 -0.171875 0.6875 -0.164062 0.6875 -0.15625 C 0.695312 -0.15625 0.703125 -0.15625 0.703125 -0.15625 L 0.703125 -0.015625 C 0.703125 -0.015625 0.695312 -0.0078125 0.6875 0 C 0.6875 0 0.679688 0 0.671875 0 L 0.109375 0 C 0.109375 0 0.101562 0 0.09375 0 C 0.09375 -0.0078125 0.09375 -0.015625 0.09375 -0.015625 L 0.09375 -1.1875 C 0.09375 -1.195312 0.09375 -1.203125 0.09375 -1.203125 C 0.101562 -1.210938 0.109375 -1.21875 0.109375 -1.21875 L 0.671875 -1.21875 C 0.679688 -1.21875 0.6875 -1.210938 0.6875 -1.203125 C 0.695312 -1.203125 0.703125 -1.195312 0.703125 -1.1875 Z M 0.703125 -1.0625 "/></g></g></g><g fill="#f8f8f0" fill-opacity="1"><g transform="translate(12.591122, 22.901667)"><g><path d="M 0.109375 0 C 0.109375 0 0.101562 0 0.09375 0 C 0.09375 -0.0078125 0.09375 -0.015625 0.09375 -0.015625 L 0.09375 -1.1875 C 0.09375 -1.195312 0.09375 -1.203125 0.09375 -1.203125 C 0.101562 -1.210938 0.109375 -1.21875 0.109375 -1.21875 L 0.28125 -1.21875 C 0.28125 -1.21875 0.28125 -1.210938 0.28125 -1.203125 C 0.289062 -1.203125 0.296875 -1.195312 0.296875 -1.1875 L 0.296875 -0.1875 C 0.296875 -0.175781 0.296875 -0.171875 0.296875 -0.171875 L 0.671875 -0.171875 C 0.679688 -0.171875 0.6875 -0.164062 0.6875 -0.15625 C 0.695312 -0.15625 0.703125 -0.15625 0.703125 -0.15625 L 0.703125 -0.015625 C 0.703125 -0.015625 0.695312 -0.0078125 0.6875 0 C 0.6875 0 0.679688 0 0.671875 0 Z M 0.109375 0 "/></g></g></g><g fill="#f8f8f0" fill-opacity="1"><g transform="translate(13.823406, 22.901667)"><g/></g></g><g fill="#f8f8f0" fill-opacity="1"><g transform="translate(14.684127, 22.901667)"><g><path d="M 0.9375 -0.03125 C 0.9375 -0.0195312 0.9375 -0.015625 0.9375 -0.015625 C 0.9375 -0.00390625 0.929688 0 0.921875 0 L 0.75 0 C 0.738281 0 0.726562 -0.00390625 0.71875 -0.015625 L 0.671875 -0.078125 C 0.671875 -0.078125 0.664062 -0.078125 0.65625 -0.078125 C 0.570312 -0.015625 0.476562 0.015625 0.375 0.015625 C 0.28125 0.015625 0.203125 -0.0078125 0.140625 -0.0625 C 0.0859375 -0.113281 0.0625 -0.1875 0.0625 -0.28125 C 0.0625 -0.351562 0.078125 -0.414062 0.109375 -0.46875 C 0.140625 -0.53125 0.1875 -0.582031 0.25 -0.625 C 0.25 -0.632812 0.25 -0.640625 0.25 -0.640625 C 0.195312 -0.722656 0.160156 -0.78125 0.140625 -0.8125 C 0.128906 -0.84375 0.125 -0.882812 0.125 -0.9375 C 0.125 -1.019531 0.148438 -1.085938 0.203125 -1.140625 C 0.253906 -1.203125 0.328125 -1.234375 0.421875 -1.234375 C 0.472656 -1.234375 0.519531 -1.21875 0.5625 -1.1875 C 0.613281 -1.164062 0.648438 -1.128906 0.671875 -1.078125 C 0.703125 -1.035156 0.71875 -0.984375 0.71875 -0.921875 C 0.71875 -0.859375 0.695312 -0.800781 0.65625 -0.75 C 0.625 -0.695312 0.578125 -0.644531 0.515625 -0.59375 C 0.515625 -0.59375 0.515625 -0.585938 0.515625 -0.578125 C 0.523438 -0.578125 0.546875 -0.550781 0.578125 -0.5 L 0.671875 -0.375 C 0.679688 -0.375 0.6875 -0.375 0.6875 -0.375 C 0.71875 -0.414062 0.742188 -0.457031 0.765625 -0.5 C 0.773438 -0.507812 0.785156 -0.515625 0.796875 -0.515625 L 0.90625 -0.4375 C 0.914062 -0.4375 0.921875 -0.429688 0.921875 -0.421875 C 0.878906 -0.335938 0.835938 -0.269531 0.796875 -0.21875 C 0.796875 -0.21875 0.796875 -0.210938 0.796875 -0.203125 C 0.828125 -0.171875 0.875 -0.113281 0.9375 -0.03125 Z M 0.421875 -1.046875 C 0.390625 -1.046875 0.363281 -1.035156 0.34375 -1.015625 C 0.332031 -0.992188 0.328125 -0.960938 0.328125 -0.921875 C 0.328125 -0.898438 0.328125 -0.878906 0.328125 -0.859375 C 0.335938 -0.835938 0.359375 -0.800781 0.390625 -0.75 C 0.398438 -0.75 0.40625 -0.75 0.40625 -0.75 C 0.445312 -0.78125 0.472656 -0.804688 0.484375 -0.828125 C 0.503906 -0.859375 0.515625 -0.890625 0.515625 -0.921875 C 0.515625 -0.960938 0.503906 -0.992188 0.484375 -1.015625 C 0.472656 -1.035156 0.453125 -1.046875 0.421875 -1.046875 Z M 0.390625 -0.15625 C 0.441406 -0.15625 0.5 -0.175781 0.5625 -0.21875 C 0.5625 -0.226562 0.5625 -0.234375 0.5625 -0.234375 L 0.5 -0.328125 L 0.375 -0.484375 C 0.375 -0.484375 0.367188 -0.484375 0.359375 -0.484375 C 0.285156 -0.421875 0.25 -0.359375 0.25 -0.296875 C 0.25 -0.253906 0.257812 -0.21875 0.28125 -0.1875 C 0.3125 -0.164062 0.347656 -0.15625 0.390625 -0.15625 Z M 0.390625 -0.15625 "/></g></g></g><g fill="#f8f8f0" fill-opacity="1"><g transform="translate(16.203292, 22.901667)"><g/></g></g><g fill="#f8f8f0" fill-opacity="1"><g transform="translate(17.064013, 22.901667)"><g><path d="M 0.578125 0 C 0.566406 0 0.554688 -0.00390625 0.546875 -0.015625 L 0.40625 -0.515625 C 0.40625 -0.515625 0.398438 -0.515625 0.390625 -0.515625 L 0.296875 -0.515625 L 0.296875 -0.015625 C 0.296875 -0.015625 0.289062 -0.0078125 0.28125 0 L 0.109375 0 C 0.109375 0 0.101562 0 0.09375 0 C 0.09375 -0.0078125 0.09375 -0.015625 0.09375 -0.015625 L 0.09375 -1.1875 C 0.09375 -1.195312 0.09375 -1.203125 0.09375 -1.203125 C 0.101562 -1.210938 0.109375 -1.21875 0.109375 -1.21875 L 0.4375 -1.21875 C 0.5 -1.21875 0.550781 -1.203125 0.59375 -1.171875 C 0.644531 -1.140625 0.679688 -1.097656 0.703125 -1.046875 C 0.734375 -0.992188 0.75 -0.929688 0.75 -0.859375 C 0.75 -0.785156 0.734375 -0.722656 0.703125 -0.671875 C 0.679688 -0.617188 0.644531 -0.582031 0.59375 -0.5625 C 0.59375 -0.5625 0.59375 -0.554688 0.59375 -0.546875 L 0.765625 -0.03125 C 0.765625 -0.0195312 0.765625 -0.015625 0.765625 -0.015625 C 0.765625 -0.00390625 0.753906 0 0.734375 0 Z M 0.296875 -1.046875 C 0.296875 -1.046875 0.296875 -1.039062 0.296875 -1.03125 L 0.296875 -0.6875 C 0.296875 -0.675781 0.296875 -0.671875 0.296875 -0.671875 L 0.40625 -0.671875 C 0.445312 -0.671875 0.476562 -0.6875 0.5 -0.71875 C 0.53125 -0.757812 0.546875 -0.804688 0.546875 -0.859375 C 0.546875 -0.910156 0.53125 -0.953125 0.5 -0.984375 C 0.476562 -1.023438 0.445312 -1.046875 0.40625 -1.046875 Z M 0.296875 -1.046875 "/></g></g></g><g fill="#f8f8f0" fill-opacity="1"><g transform="translate(18.375793, 22.901667)"><g><path d="M 0.703125 -1.0625 C 0.703125 -1.050781 0.695312 -1.046875 0.6875 -1.046875 C 0.6875 -1.046875 0.679688 -1.046875 0.671875 -1.046875 L 0.296875 -1.046875 C 0.296875 -1.046875 0.296875 -1.039062 0.296875 -1.03125 L 0.296875 -0.703125 L 0.53125 -0.703125 C 0.53125 -0.703125 0.53125 -0.695312 0.53125 -0.6875 C 0.539062 -0.6875 0.546875 -0.679688 0.546875 -0.671875 L 0.546875 -0.546875 C 0.546875 -0.535156 0.539062 -0.523438 0.53125 -0.515625 L 0.296875 -0.515625 L 0.296875 -0.1875 C 0.296875 -0.175781 0.296875 -0.171875 0.296875 -0.171875 L 0.671875 -0.171875 C 0.679688 -0.171875 0.6875 -0.164062 0.6875 -0.15625 C 0.695312 -0.15625 0.703125 -0.15625 0.703125 -0.15625 L 0.703125 -0.015625 C 0.703125 -0.015625 0.695312 -0.0078125 0.6875 0 C 0.6875 0 0.679688 0 0.671875 0 L 0.109375 0 C 0.109375 0 0.101562 0 0.09375 0 C 0.09375 -0.0078125 0.09375 -0.015625 0.09375 -0.015625 L 0.09375 -1.1875 C 0.09375 -1.195312 0.09375 -1.203125 0.09375 -1.203125 C 0.101562 -1.210938 0.109375 -1.21875 0.109375 -1.21875 L 0.671875 -1.21875 C 0.679688 -1.21875 0.6875 -1.210938 0.6875 -1.203125 C 0.695312 -1.203125 0.703125 -1.195312 0.703125 -1.1875 Z M 0.703125 -1.0625 "/></g></g></g><g fill="#f8f8f0" fill-opacity="1"><g transform="translate(19.642641, 22.901667)"><g><path d="M 0.375 0.015625 C 0.28125 0.015625 0.203125 -0.0078125 0.140625 -0.0625 C 0.0859375 -0.125 0.0625 -0.203125 0.0625 -0.296875 L 0.0625 -0.34375 C 0.0625 -0.351562 0.0625 -0.359375 0.0625 -0.359375 C 0.0703125 -0.359375 0.078125 -0.359375 0.078125 -0.359375 L 0.234375 -0.359375 C 0.242188 -0.359375 0.25 -0.359375 0.25 -0.359375 C 0.257812 -0.359375 0.265625 -0.351562 0.265625 -0.34375 L 0.265625 -0.3125 C 0.265625 -0.269531 0.273438 -0.234375 0.296875 -0.203125 C 0.316406 -0.171875 0.34375 -0.15625 0.375 -0.15625 C 0.414062 -0.15625 0.445312 -0.164062 0.46875 -0.1875 C 0.488281 -0.21875 0.5 -0.253906 0.5 -0.296875 C 0.5 -0.328125 0.492188 -0.351562 0.484375 -0.375 C 0.472656 -0.394531 0.453125 -0.414062 0.421875 -0.4375 C 0.398438 -0.457031 0.363281 -0.488281 0.3125 -0.53125 C 0.257812 -0.570312 0.210938 -0.609375 0.171875 -0.640625 C 0.140625 -0.671875 0.113281 -0.707031 0.09375 -0.75 C 0.0703125 -0.800781 0.0625 -0.851562 0.0625 -0.90625 C 0.0625 -1.007812 0.0859375 -1.085938 0.140625 -1.140625 C 0.203125 -1.203125 0.28125 -1.234375 0.375 -1.234375 C 0.46875 -1.234375 0.539062 -1.203125 0.59375 -1.140625 C 0.65625 -1.078125 0.6875 -1 0.6875 -0.90625 L 0.6875 -0.859375 C 0.6875 -0.847656 0.6875 -0.84375 0.6875 -0.84375 C 0.6875 -0.84375 0.679688 -0.84375 0.671875 -0.84375 L 0.515625 -0.84375 C 0.503906 -0.84375 0.5 -0.84375 0.5 -0.84375 C 0.5 -0.84375 0.5 -0.847656 0.5 -0.859375 L 0.5 -0.90625 C 0.5 -0.945312 0.484375 -0.976562 0.453125 -1 C 0.429688 -1.03125 0.40625 -1.046875 0.375 -1.046875 C 0.332031 -1.046875 0.300781 -1.035156 0.28125 -1.015625 C 0.257812 -0.992188 0.25 -0.957031 0.25 -0.90625 C 0.25 -0.863281 0.257812 -0.828125 0.28125 -0.796875 C 0.3125 -0.773438 0.359375 -0.738281 0.421875 -0.6875 C 0.492188 -0.632812 0.546875 -0.59375 0.578125 -0.5625 C 0.617188 -0.53125 0.648438 -0.492188 0.671875 -0.453125 C 0.691406 -0.410156 0.703125 -0.363281 0.703125 -0.3125 C 0.703125 -0.21875 0.671875 -0.140625 0.609375 -0.078125 C 0.554688 -0.015625 0.476562 0.015625 0.375 0.015625 Z M 0.375 0.015625 "/></g></g></g><g fill="#f8f8f0" fill-opacity="1"><g transform="translate(20.90776, 22.901667)"><g><path d="M 0.71875 -1.21875 C 0.71875 -1.21875 0.71875 -1.210938 0.71875 -1.203125 C 0.726562 -1.203125 0.734375 -1.195312 0.734375 -1.1875 L 0.734375 -1.0625 C 0.734375 -1.050781 0.726562 -1.046875 0.71875 -1.046875 L 0.5 -1.046875 C 0.488281 -1.046875 0.484375 -1.039062 0.484375 -1.03125 L 0.484375 -0.015625 C 0.484375 -0.015625 0.476562 -0.0078125 0.46875 0 L 0.3125 0 C 0.300781 0 0.289062 0 0.28125 0 C 0.28125 -0.0078125 0.28125 -0.015625 0.28125 -0.015625 L 0.28125 -1.03125 C 0.28125 -1.039062 0.28125 -1.046875 0.28125 -1.046875 L 0.0625 -1.046875 C 0.0625 -1.046875 0.0546875 -1.046875 0.046875 -1.046875 C 0.046875 -1.046875 0.046875 -1.050781 0.046875 -1.0625 L 0.046875 -1.1875 C 0.046875 -1.195312 0.046875 -1.203125 0.046875 -1.203125 C 0.0546875 -1.210938 0.0625 -1.21875 0.0625 -1.21875 Z M 0.71875 -1.21875 "/></g></g></g><g fill="#f8f8f0" fill-opacity="1"><g transform="translate(22.203986, 22.901667)"><g><path d="M 0.59375 0 C 0.570312 0 0.5625 -0.00390625 0.5625 -0.015625 L 0.53125 -0.203125 C 0.53125 -0.203125 0.523438 -0.203125 0.515625 -0.203125 L 0.265625 -0.203125 C 0.253906 -0.203125 0.25 -0.203125 0.25 -0.203125 L 0.21875 -0.015625 C 0.21875 -0.00390625 0.210938 0 0.203125 0 L 0.046875 0 C 0.0234375 0 0.0195312 -0.00390625 0.03125 -0.015625 L 0.28125 -1.1875 C 0.28125 -1.207031 0.285156 -1.21875 0.296875 -1.21875 L 0.484375 -1.21875 C 0.492188 -1.21875 0.503906 -1.207031 0.515625 -1.1875 L 0.765625 -0.015625 C 0.765625 -0.00390625 0.757812 0 0.75 0 Z M 0.28125 -0.375 C 0.28125 -0.375 0.285156 -0.375 0.296875 -0.375 L 0.484375 -0.375 C 0.492188 -0.375 0.5 -0.375 0.5 -0.375 L 0.390625 -0.921875 Z M 0.28125 -0.375 "/></g></g></g><g fill="#f8f8f0" fill-opacity="1"><g transform="translate(23.507125, 22.901667)"><g><path d="M 0.421875 0.015625 C 0.316406 0.015625 0.234375 -0.015625 0.171875 -0.078125 C 0.117188 -0.140625 0.09375 -0.226562 0.09375 -0.34375 L 0.09375 -1.1875 C 0.09375 -1.195312 0.09375 -1.203125 0.09375 -1.203125 C 0.09375 -1.210938 0.0976562 -1.21875 0.109375 -1.21875 L 0.265625 -1.21875 C 0.273438 -1.21875 0.28125 -1.210938 0.28125 -1.203125 C 0.28125 -1.203125 0.28125 -1.195312 0.28125 -1.1875 L 0.28125 -0.3125 C 0.28125 -0.269531 0.289062 -0.234375 0.3125 -0.203125 C 0.34375 -0.171875 0.378906 -0.15625 0.421875 -0.15625 C 0.453125 -0.15625 0.476562 -0.171875 0.5 -0.203125 C 0.53125 -0.234375 0.546875 -0.269531 0.546875 -0.3125 L 0.546875 -1.1875 C 0.546875 -1.195312 0.546875 -1.203125 0.546875 -1.203125 C 0.546875 -1.210938 0.550781 -1.21875 0.5625 -1.21875 L 0.71875 -1.21875 C 0.726562 -1.21875 0.734375 -1.210938 0.734375 -1.203125 C 0.742188 -1.203125 0.75 -1.195312 0.75 -1.1875 L 0.75 -0.34375 C 0.75 -0.226562 0.71875 -0.140625 0.65625 -0.078125 C 0.59375 -0.015625 0.515625 0.015625 0.421875 0.015625 Z M 0.421875 0.015625 "/></g></g></g><g fill="#f8f8f0" fill-opacity="1"><g transform="translate(24.848284, 22.901667)"><g><path d="M 0.578125 0 C 0.566406 0 0.554688 -0.00390625 0.546875 -0.015625 L 0.40625 -0.515625 C 0.40625 -0.515625 0.398438 -0.515625 0.390625 -0.515625 L 0.296875 -0.515625 L 0.296875 -0.015625 C 0.296875 -0.015625 0.289062 -0.0078125 0.28125 0 L 0.109375 0 C 0.109375 0 0.101562 0 0.09375 0 C 0.09375 -0.0078125 0.09375 -0.015625 0.09375 -0.015625 L 0.09375 -1.1875 C 0.09375 -1.195312 0.09375 -1.203125 0.09375 -1.203125 C 0.101562 -1.210938 0.109375 -1.21875 0.109375 -1.21875 L 0.4375 -1.21875 C 0.5 -1.21875 0.550781 -1.203125 0.59375 -1.171875 C 0.644531 -1.140625 0.679688 -1.097656 0.703125 -1.046875 C 0.734375 -0.992188 0.75 -0.929688 0.75 -0.859375 C 0.75 -0.785156 0.734375 -0.722656 0.703125 -0.671875 C 0.679688 -0.617188 0.644531 -0.582031 0.59375 -0.5625 C 0.59375 -0.5625 0.59375 -0.554688 0.59375 -0.546875 L 0.765625 -0.03125 C 0.765625 -0.0195312 0.765625 -0.015625 0.765625 -0.015625 C 0.765625 -0.00390625 0.753906 0 0.734375 0 Z M 0.296875 -1.046875 C 0.296875 -1.046875 0.296875 -1.039062 0.296875 -1.03125 L 0.296875 -0.6875 C 0.296875 -0.675781 0.296875 -0.671875 0.296875 -0.671875 L 0.40625 -0.671875 C 0.445312 -0.671875 0.476562 -0.6875 0.5 -0.71875 C 0.53125 -0.757812 0.546875 -0.804688 0.546875 -0.859375 C 0.546875 -0.910156 0.53125 -0.953125 0.5 -0.984375 C 0.476562 -1.023438 0.445312 -1.046875 0.40625 -1.046875 Z M 0.296875 -1.046875 "/></g></g></g><g fill="#f8f8f0" fill-opacity="1"><g transform="translate(26.160063, 22.901667)"><g><path d="M 0.59375 0 C 0.570312 0 0.5625 -0.00390625 0.5625 -0.015625 L 0.53125 -0.203125 C 0.53125 -0.203125 0.523438 -0.203125 0.515625 -0.203125 L 0.265625 -0.203125 C 0.253906 -0.203125 0.25 -0.203125 0.25 -0.203125 L 0.21875 -0.015625 C 0.21875 -0.00390625 0.210938 0 0.203125 0 L 0.046875 0 C 0.0234375 0 0.0195312 -0.00390625 0.03125 -0.015625 L 0.28125 -1.1875 C 0.28125 -1.207031 0.285156 -1.21875 0.296875 -1.21875 L 0.484375 -1.21875 C 0.492188 -1.21875 0.503906 -1.207031 0.515625 -1.1875 L 0.765625 -0.015625 C 0.765625 -0.00390625 0.757812 0 0.75 0 Z M 0.28125 -0.375 C 0.28125 -0.375 0.285156 -0.375 0.296875 -0.375 L 0.484375 -0.375 C 0.492188 -0.375 0.5 -0.375 0.5 -0.375 L 0.390625 -0.921875 Z M 0.28125 -0.375 "/></g></g></g><g fill="#f8f8f0" fill-opacity="1"><g transform="translate(27.463203, 22.901667)"><g><path d="M 0.59375 -1.1875 C 0.59375 -1.195312 0.59375 -1.203125 0.59375 -1.203125 C 0.59375 -1.210938 0.597656 -1.21875 0.609375 -1.21875 L 0.765625 -1.21875 C 0.773438 -1.21875 0.78125 -1.210938 0.78125 -1.203125 C 0.78125 -1.203125 0.78125 -1.195312 0.78125 -1.1875 L 0.78125 -0.015625 C 0.78125 -0.015625 0.78125 -0.0078125 0.78125 0 C 0.78125 0 0.773438 0 0.765625 0 L 0.578125 0 C 0.566406 0 0.5625 -0.00390625 0.5625 -0.015625 L 0.296875 -0.75 C 0.296875 -0.757812 0.296875 -0.757812 0.296875 -0.75 L 0.296875 -0.015625 C 0.296875 -0.015625 0.289062 -0.0078125 0.28125 0 C 0.28125 0 0.273438 0 0.265625 0 L 0.109375 0 C 0.109375 0 0.101562 0 0.09375 0 C 0.09375 -0.0078125 0.09375 -0.015625 0.09375 -0.015625 L 0.09375 -1.1875 C 0.09375 -1.195312 0.09375 -1.203125 0.09375 -1.203125 C 0.101562 -1.210938 0.109375 -1.21875 0.109375 -1.21875 L 0.296875 -1.21875 C 0.304688 -1.21875 0.3125 -1.210938 0.3125 -1.203125 L 0.578125 -0.46875 C 0.585938 -0.46875 0.59375 -0.46875 0.59375 -0.46875 Z M 0.59375 -1.1875 "/></g></g></g><g fill="#f8f8f0" fill-opacity="1"><g transform="translate(28.85448, 22.901667)"><g><path d="M 0.71875 -1.21875 C 0.71875 -1.21875 0.71875 -1.210938 0.71875 -1.203125 C 0.726562 -1.203125 0.734375 -1.195312 0.734375 -1.1875 L 0.734375 -1.0625 C 0.734375 -1.050781 0.726562 -1.046875 0.71875 -1.046875 L 0.5 -1.046875 C 0.488281 -1.046875 0.484375 -1.039062 0.484375 -1.03125 L 0.484375 -0.015625 C 0.484375 -0.015625 0.476562 -0.0078125 0.46875 0 L 0.3125 0 C 0.300781 0 0.289062 0 0.28125 0 C 0.28125 -0.0078125 0.28125 -0.015625 0.28125 -0.015625 L 0.28125 -1.03125 C 0.28125 -1.039062 0.28125 -1.046875 0.28125 -1.046875 L 0.0625 -1.046875 C 0.0625 -1.046875 0.0546875 -1.046875 0.046875 -1.046875 C 0.046875 -1.046875 0.046875 -1.050781 0.046875 -1.0625 L 0.046875 -1.1875 C 0.046875 -1.195312 0.046875 -1.203125 0.046875 -1.203125 C 0.0546875 -1.210938 0.0625 -1.21875 0.0625 -1.21875 Z M 0.71875 -1.21875 "/></g></g></g></svg>