<svg xmlns="http://www.w3.org/2000/svg" xmlns:xlink="http://www.w3.org/1999/xlink" width="50" zoomAndPan="magnify" viewBox="0 0 37.5 37.499999" height="50" preserveAspectRatio="xMidYMid meet" version="1.0"><defs><g/><clipPath id="56a49b81f0"><path d="M 7.011719 10.746094 L 29.953125 10.746094 L 29.953125 26.289062 L 7.011719 26.289062 Z M 7.011719 10.746094 " clip-rule="nonzero"/></clipPath><clipPath id="0a5042863f"><path d="M 7.011719 15 L 29.953125 15 L 29.953125 26 L 7.011719 26 Z M 7.011719 15 " clip-rule="nonzero"/></clipPath><clipPath id="820d7d6a83"><path d="M 7.011719 11 L 29.953125 11 L 29.953125 16 L 7.011719 16 Z M 7.011719 11 " clip-rule="nonzero"/></clipPath></defs><g clip-path="url(#56a49b81f0)"><path fill="#323233" d="M 29.957031 15.539062 L 29.957031 15.101562 C 29.957031 14.273438 29.402344 13.453125 28.722656 13.277344 L 19.730469 10.921875 C 19.054688 10.746094 17.945312 10.746094 17.265625 10.921875 L 8.273438 13.277344 C 7.597656 13.453125 7.042969 14.273438 7.042969 15.101562 L 7.042969 15.539062 L 7.625 15.539062 L 7.625 15.453125 C 7.625 14.675781 8.175781 13.902344 8.851562 13.730469 L 17.316406 11.609375 C 17.632812 11.535156 18.050781 11.488281 18.5 11.488281 C 18.550781 11.488281 18.597656 11.550781 18.65625 11.65625 C 18.605469 11.65625 18.554688 11.65625 18.5 11.65625 C 18.066406 11.65625 17.660156 11.699219 17.355469 11.773438 L 8.890625 13.890625 C 8.285156 14.042969 7.792969 14.742188 7.792969 15.453125 L 7.792969 15.539062 L 7.042969 15.539062 L 7.042969 21.894531 C 7.042969 22.722656 7.597656 23.542969 8.273438 23.722656 L 17.265625 26.074219 C 17.945312 26.253906 19.054688 26.253906 19.730469 26.074219 L 28.722656 23.722656 C 29.402344 23.542969 29.957031 22.722656 29.957031 21.894531 L 29.957031 15.539062 L 29.207031 15.539062 L 29.207031 15.453125 C 29.207031 14.746094 28.710938 14.046875 28.105469 13.890625 L 27.835938 13.824219 L 28.144531 13.730469 C 28.824219 13.898438 29.371094 14.667969 29.371094 15.453125 L 29.371094 15.539062 Z M 29.957031 15.539062 " fill-opacity="1" fill-rule="nonzero"/></g><g clip-path="url(#0a5042863f)"><path fill="#ffffff" d="M 29.207031 21.550781 C 29.207031 22.257812 28.710938 22.957031 28.105469 23.113281 L 19.636719 25.226562 C 19.335938 25.304688 18.933594 25.34375 18.492188 25.34375 C 18.054688 25.34375 17.65625 25.296875 17.351562 25.226562 L 8.890625 23.105469 C 8.285156 22.957031 7.792969 22.257812 7.792969 21.546875 L 7.792969 15.539062 L 7.625 15.539062 L 7.625 21.550781 C 7.625 22.328125 8.175781 23.101562 8.851562 23.273438 L 17.324219 25.386719 C 17.640625 25.464844 18.054688 25.507812 18.503906 25.507812 C 18.953125 25.507812 19.371094 25.464844 19.6875 25.386719 L 28.144531 23.265625 C 28.824219 23.101562 29.371094 22.328125 29.371094 21.546875 L 29.371094 15.535156 L 29.207031 15.535156 Z M 29.207031 21.550781 " fill-opacity="1" fill-rule="nonzero"/></g><g clip-path="url(#820d7d6a83)"><path fill="#ffffff" d="M 28.144531 13.726562 L 19.679688 11.609375 C 19.363281 11.535156 18.949219 11.488281 18.5 11.488281 C 18.054688 11.488281 17.632812 11.535156 17.316406 11.609375 L 8.851562 13.726562 C 8.175781 13.890625 7.625 14.664062 7.625 15.445312 L 7.625 15.535156 L 7.792969 15.535156 L 7.792969 15.445312 C 7.792969 14.742188 8.285156 14.042969 8.890625 13.886719 L 17.363281 11.773438 C 17.660156 11.695312 18.066406 11.65625 18.503906 11.65625 C 18.9375 11.65625 19.34375 11.699219 19.648438 11.773438 L 28.117188 13.886719 C 28.722656 14.035156 29.21875 14.734375 29.21875 15.445312 L 29.21875 15.535156 L 29.382812 15.535156 L 29.382812 15.445312 C 29.371094 14.667969 28.824219 13.898438 28.144531 13.726562 Z M 28.144531 13.726562 " fill-opacity="1" fill-rule="nonzero"/></g><g fill="#f8f8f0" fill-opacity="1"><g transform="translate(11.67794, 19.222379)"><g><path d="M 1.671875 -3.1875 C 1.679688 -3.1875 1.6875 -3.1875 1.6875 -3.1875 C 1.894531 -3.175781 2.09375 -3.128906 2.28125 -3.046875 C 2.46875 -2.972656 2.632812 -2.863281 2.78125 -2.71875 C 2.789062 -2.707031 2.789062 -2.695312 2.78125 -2.6875 L 2.578125 -2.484375 C 2.566406 -2.484375 2.5625 -2.484375 2.5625 -2.484375 C 2.5625 -2.484375 2.554688 -2.484375 2.546875 -2.484375 C 2.441406 -2.679688 2.3125 -2.835938 2.15625 -2.953125 C 2.007812 -3.066406 1.851562 -3.128906 1.6875 -3.140625 C 1.675781 -3.140625 1.671875 -3.140625 1.671875 -3.140625 C 1.660156 -3.140625 1.644531 -3.140625 1.625 -3.140625 C 1.625 -3.140625 1.617188 -3.140625 1.609375 -3.140625 C 1.316406 -3.128906 1.066406 -2.972656 0.859375 -2.671875 C 0.753906 -2.523438 0.675781 -2.359375 0.625 -2.171875 C 0.570312 -1.984375 0.546875 -1.785156 0.546875 -1.578125 C 0.546875 -1.367188 0.570312 -1.171875 0.625 -0.984375 C 0.6875 -0.796875 0.765625 -0.628906 0.859375 -0.484375 C 0.960938 -0.335938 1.082031 -0.222656 1.21875 -0.140625 C 1.351562 -0.0546875 1.492188 -0.015625 1.640625 -0.015625 C 1.828125 -0.015625 2 -0.0703125 2.15625 -0.1875 C 2.3125 -0.3125 2.441406 -0.472656 2.546875 -0.671875 C 2.554688 -0.671875 2.5625 -0.671875 2.5625 -0.671875 C 2.5625 -0.679688 2.5625 -0.6875 2.5625 -0.6875 C 2.5625 -0.6875 2.566406 -0.6875 2.578125 -0.6875 C 2.578125 -0.6875 2.578125 -0.679688 2.578125 -0.671875 L 2.78125 -0.484375 C 2.789062 -0.472656 2.789062 -0.460938 2.78125 -0.453125 C 2.632812 -0.304688 2.46875 -0.191406 2.28125 -0.109375 C 2.09375 -0.0234375 1.894531 0.015625 1.6875 0.015625 C 1.675781 0.015625 1.664062 0.015625 1.65625 0.015625 C 1.65625 0.015625 1.648438 0.015625 1.640625 0.015625 C 1.429688 0.015625 1.226562 -0.0195312 1.03125 -0.09375 C 0.832031 -0.175781 0.660156 -0.296875 0.515625 -0.453125 C 0.359375 -0.597656 0.238281 -0.769531 0.15625 -0.96875 C 0.0820312 -1.164062 0.046875 -1.367188 0.046875 -1.578125 C 0.046875 -1.796875 0.0820312 -2 0.15625 -2.1875 C 0.238281 -2.382812 0.359375 -2.5625 0.515625 -2.71875 C 0.660156 -2.863281 0.828125 -2.972656 1.015625 -3.046875 C 1.203125 -3.128906 1.398438 -3.175781 1.609375 -3.1875 C 1.617188 -3.1875 1.625 -3.1875 1.625 -3.1875 C 1.632812 -3.1875 1.640625 -3.1875 1.640625 -3.1875 C 1.648438 -3.1875 1.65625 -3.1875 1.65625 -3.1875 C 1.664062 -3.1875 1.671875 -3.1875 1.671875 -3.1875 Z M 1.671875 -3.1875 "/></g></g></g><g fill="#f8f8f0" fill-opacity="1"><g transform="translate(14.510333, 19.222379)"><g><path d="M 3.015625 0.015625 L 2.28125 0.015625 C 2.257812 0.015625 2.25 0.0078125 2.25 0 C 2.25 -0.0078125 2.257812 -0.015625 2.28125 -0.015625 C 2.332031 -0.015625 2.367188 -0.0351562 2.390625 -0.078125 C 2.421875 -0.117188 2.421875 -0.171875 2.390625 -0.234375 L 2.28125 -0.5 L 0.5625 -0.5 L 0.453125 -0.234375 C 0.421875 -0.171875 0.421875 -0.117188 0.453125 -0.078125 C 0.472656 -0.0351562 0.507812 -0.015625 0.5625 -0.015625 C 0.582031 -0.015625 0.59375 -0.0078125 0.59375 0 C 0.59375 0.0078125 0.582031 0.015625 0.5625 0.015625 L 0.0625 0.015625 C 0.0507812 0.015625 0.046875 0.0078125 0.046875 0 C 0.046875 -0.0078125 0.0507812 -0.015625 0.0625 -0.015625 C 0.125 -0.015625 0.1875 -0.0351562 0.25 -0.078125 C 0.320312 -0.128906 0.375 -0.191406 0.40625 -0.265625 L 0.515625 -0.53125 L 1.40625 -2.59375 L 1.640625 -3.171875 C 1.640625 -3.171875 1.644531 -3.171875 1.65625 -3.171875 C 1.65625 -3.179688 1.65625 -3.1875 1.65625 -3.1875 C 1.664062 -3.1875 1.671875 -3.1875 1.671875 -3.1875 C 1.671875 -3.175781 1.671875 -3.175781 1.671875 -3.1875 C 1.671875 -3.1875 1.671875 -3.179688 1.671875 -3.171875 C 1.671875 -3.171875 1.675781 -3.171875 1.6875 -3.171875 L 2.921875 -0.265625 C 2.953125 -0.191406 3 -0.128906 3.0625 -0.078125 C 3.132812 -0.0351562 3.203125 -0.015625 3.265625 -0.015625 C 3.273438 -0.015625 3.28125 -0.0078125 3.28125 0 C 3.28125 0.0078125 3.273438 0.015625 3.265625 0.015625 Z M 0.578125 -0.546875 L 2.265625 -0.546875 L 1.421875 -2.53125 Z M 0.578125 -0.546875 "/></g></g></g><g fill="#f8f8f0" fill-opacity="1"><g transform="translate(17.837487, 19.222379)"><g><path d="M 1.984375 -3.1875 C 2.179688 -3.1875 2.359375 -3.140625 2.515625 -3.046875 C 2.671875 -2.953125 2.796875 -2.820312 2.890625 -2.65625 C 2.984375 -2.5 3.03125 -2.320312 3.03125 -2.125 C 3.03125 -1.9375 2.984375 -1.765625 2.890625 -1.609375 C 2.796875 -1.453125 2.671875 -1.320312 2.515625 -1.21875 C 2.359375 -1.125 2.179688 -1.078125 1.984375 -1.078125 L 0.796875 -1.078125 L 0.796875 -0.25 C 0.796875 -0.1875 0.816406 -0.128906 0.859375 -0.078125 C 0.898438 -0.0351562 0.953125 -0.015625 1.015625 -0.015625 C 1.023438 -0.015625 1.03125 -0.0078125 1.03125 0 C 1.03125 0.0078125 1.023438 0.015625 1.015625 0.015625 L 0.0625 0.015625 C 0.0507812 0.015625 0.046875 0.0078125 0.046875 0 C 0.046875 -0.0078125 0.0507812 -0.015625 0.0625 -0.015625 C 0.125 -0.015625 0.175781 -0.0351562 0.21875 -0.078125 C 0.269531 -0.128906 0.296875 -0.1875 0.296875 -0.25 L 0.296875 -2.90625 C 0.296875 -2.96875 0.269531 -3.019531 0.21875 -3.0625 C 0.175781 -3.113281 0.125 -3.140625 0.0625 -3.140625 C 0.0507812 -3.140625 0.046875 -3.144531 0.046875 -3.15625 C 0.046875 -3.175781 0.0507812 -3.1875 0.0625 -3.1875 Z M 0.796875 -3.140625 L 0.796875 -1.125 L 1.984375 -1.125 C 2.085938 -1.125 2.179688 -1.171875 2.265625 -1.265625 C 2.347656 -1.359375 2.414062 -1.476562 2.46875 -1.625 C 2.519531 -1.78125 2.546875 -1.945312 2.546875 -2.125 C 2.546875 -2.3125 2.519531 -2.476562 2.46875 -2.625 C 2.414062 -2.78125 2.347656 -2.90625 2.265625 -3 C 2.179688 -3.09375 2.085938 -3.140625 1.984375 -3.140625 Z M 0.796875 -3.140625 "/></g></g></g><g fill="#f8f8f0" fill-opacity="1"><g transform="translate(20.914991, 19.222379)"><g><path d="M 3.015625 0.015625 L 2.46875 0.015625 C 2.457031 0.015625 2.453125 0.015625 2.453125 0.015625 L 1.703125 -1.078125 L 0.796875 -1.078125 L 0.796875 -0.25 C 0.796875 -0.1875 0.816406 -0.128906 0.859375 -0.078125 C 0.898438 -0.0351562 0.953125 -0.015625 1.015625 -0.015625 C 1.023438 -0.015625 1.03125 -0.0078125 1.03125 0 C 1.03125 0.0078125 1.023438 0.015625 1.015625 0.015625 L 0.0625 0.015625 C 0.0507812 0.015625 0.046875 0.0078125 0.046875 0 C 0.046875 -0.0078125 0.0507812 -0.015625 0.0625 -0.015625 C 0.125 -0.015625 0.175781 -0.0351562 0.21875 -0.078125 C 0.269531 -0.128906 0.296875 -0.1875 0.296875 -0.25 L 0.296875 -2.90625 C 0.296875 -2.96875 0.269531 -3.019531 0.21875 -3.0625 C 0.175781 -3.113281 0.125 -3.140625 0.0625 -3.140625 C 0.0507812 -3.140625 0.046875 -3.144531 0.046875 -3.15625 C 0.046875 -3.175781 0.0507812 -3.1875 0.0625 -3.1875 L 1.984375 -3.1875 C 1.992188 -3.1875 2 -3.1875 2 -3.1875 C 2.1875 -3.175781 2.359375 -3.125 2.515625 -3.03125 C 2.671875 -2.9375 2.796875 -2.8125 2.890625 -2.65625 C 2.984375 -2.5 3.03125 -2.320312 3.03125 -2.125 C 3.03125 -1.96875 3 -1.820312 2.9375 -1.6875 C 2.875 -1.550781 2.785156 -1.429688 2.671875 -1.328125 C 2.554688 -1.234375 2.425781 -1.164062 2.28125 -1.125 L 2.859375 -0.265625 C 2.910156 -0.191406 2.972656 -0.128906 3.046875 -0.078125 C 3.128906 -0.0351562 3.203125 -0.015625 3.265625 -0.015625 C 3.273438 -0.015625 3.28125 -0.0078125 3.28125 0 C 3.28125 0.0078125 3.273438 0.015625 3.265625 0.015625 Z M 1.984375 -3.140625 L 0.796875 -3.140625 L 0.796875 -1.125 L 1.984375 -1.125 C 1.992188 -1.125 2 -1.125 2 -1.125 C 2.0625 -1.125 2.128906 -1.148438 2.203125 -1.203125 C 2.296875 -1.273438 2.375 -1.394531 2.4375 -1.5625 C 2.507812 -1.738281 2.546875 -1.925781 2.546875 -2.125 C 2.546875 -2.3125 2.519531 -2.476562 2.46875 -2.625 C 2.414062 -2.78125 2.347656 -2.898438 2.265625 -2.984375 C 2.191406 -3.078125 2.101562 -3.128906 2 -3.140625 C 2 -3.140625 1.992188 -3.140625 1.984375 -3.140625 Z M 1.984375 -3.140625 "/></g></g></g><g fill="#f8f8f0" fill-opacity="1"><g transform="translate(24.242146, 19.222379)"><g><path d="M 0.765625 0.015625 L 0.0625 0.015625 C 0.0507812 0.015625 0.046875 0.0078125 0.046875 0 C 0.046875 -0.0078125 0.0507812 -0.015625 0.0625 -0.015625 C 0.125 -0.015625 0.175781 -0.0351562 0.21875 -0.078125 C 0.269531 -0.128906 0.296875 -0.1875 0.296875 -0.25 L 0.296875 -2.90625 C 0.296875 -2.96875 0.269531 -3.019531 0.21875 -3.0625 C 0.175781 -3.113281 0.125 -3.140625 0.0625 -3.140625 C 0.0507812 -3.140625 0.046875 -3.144531 0.046875 -3.15625 C 0.046875 -3.175781 0.0507812 -3.1875 0.0625 -3.1875 L 1.015625 -3.1875 C 1.023438 -3.1875 1.03125 -3.175781 1.03125 -3.15625 C 1.03125 -3.144531 1.023438 -3.140625 1.015625 -3.140625 C 0.953125 -3.140625 0.898438 -3.113281 0.859375 -3.0625 C 0.816406 -3.019531 0.796875 -2.96875 0.796875 -2.90625 L 0.796875 -0.25 C 0.796875 -0.1875 0.816406 -0.128906 0.859375 -0.078125 C 0.898438 -0.0351562 0.953125 -0.015625 1.015625 -0.015625 C 1.023438 -0.015625 1.03125 -0.0078125 1.03125 0 C 1.03125 0.0078125 1.023438 0.015625 1.015625 0.015625 Z M 0.765625 0.015625 "/></g></g></g><g fill="#f8f8f0" fill-opacity="1"><g transform="translate(10.633566, 20.988778)"><g><path d="M 0.375 -0.84375 C 0.375 -0.851562 0.378906 -0.859375 0.390625 -0.859375 L 0.5 -0.859375 C 0.5 -0.859375 0.5 -0.851562 0.5 -0.84375 C 0.507812 -0.84375 0.515625 -0.84375 0.515625 -0.84375 L 0.515625 -0.015625 C 0.515625 -0.015625 0.507812 -0.0078125 0.5 0 L 0.390625 0 C 0.378906 0 0.375 0 0.375 0 C 0.375 -0.0078125 0.375 -0.015625 0.375 -0.015625 L 0.375 -0.359375 L 0.21875 -0.359375 C 0.207031 -0.359375 0.203125 -0.359375 0.203125 -0.359375 L 0.203125 -0.015625 C 0.203125 -0.015625 0.203125 -0.0078125 0.203125 0 C 0.203125 0 0.195312 0 0.1875 0 L 0.078125 0 C 0.078125 0 0.0703125 0 0.0625 0 C 0.0625 -0.0078125 0.0625 -0.015625 0.0625 -0.015625 L 0.0625 -0.84375 C 0.0703125 -0.851562 0.078125 -0.859375 0.078125 -0.859375 L 0.1875 -0.859375 C 0.195312 -0.859375 0.203125 -0.851562 0.203125 -0.84375 L 0.203125 -0.5 C 0.203125 -0.488281 0.207031 -0.484375 0.21875 -0.484375 L 0.375 -0.484375 C 0.375 -0.484375 0.375 -0.488281 0.375 -0.5 Z M 0.375 -0.84375 "/></g></g></g><g fill="#f8f8f0" fill-opacity="1"><g transform="translate(11.580062, 20.988778)"><g><path d="M 0.28125 0.015625 C 0.207031 0.015625 0.148438 -0.00390625 0.109375 -0.046875 C 0.0664062 -0.0859375 0.046875 -0.144531 0.046875 -0.21875 L 0.046875 -0.625 C 0.046875 -0.695312 0.0664062 -0.753906 0.109375 -0.796875 C 0.148438 -0.835938 0.207031 -0.859375 0.28125 -0.859375 C 0.351562 -0.859375 0.410156 -0.835938 0.453125 -0.796875 C 0.492188 -0.753906 0.515625 -0.695312 0.515625 -0.625 L 0.515625 -0.21875 C 0.515625 -0.144531 0.492188 -0.0859375 0.453125 -0.046875 C 0.410156 -0.00390625 0.351562 0.015625 0.28125 0.015625 Z M 0.28125 -0.109375 C 0.3125 -0.109375 0.332031 -0.117188 0.34375 -0.140625 C 0.363281 -0.160156 0.375 -0.1875 0.375 -0.21875 L 0.375 -0.640625 C 0.375 -0.671875 0.363281 -0.691406 0.34375 -0.703125 C 0.332031 -0.722656 0.3125 -0.734375 0.28125 -0.734375 C 0.257812 -0.734375 0.238281 -0.722656 0.21875 -0.703125 C 0.195312 -0.691406 0.1875 -0.671875 0.1875 -0.640625 L 0.1875 -0.21875 C 0.1875 -0.1875 0.195312 -0.160156 0.21875 -0.140625 C 0.238281 -0.117188 0.257812 -0.109375 0.28125 -0.109375 Z M 0.28125 -0.109375 "/></g></g></g><g fill="#f8f8f0" fill-opacity="1"><g transform="translate(12.514346, 20.988778)"><g><path d="M 0.5 -0.859375 C 0.507812 -0.859375 0.515625 -0.851562 0.515625 -0.84375 L 0.515625 -0.75 C 0.515625 -0.738281 0.515625 -0.734375 0.515625 -0.734375 C 0.515625 -0.734375 0.507812 -0.734375 0.5 -0.734375 L 0.34375 -0.734375 C 0.34375 -0.734375 0.34375 -0.726562 0.34375 -0.71875 L 0.34375 -0.015625 C 0.34375 -0.015625 0.335938 -0.0078125 0.328125 0 L 0.21875 0 C 0.207031 0 0.203125 0 0.203125 0 C 0.203125 -0.0078125 0.203125 -0.015625 0.203125 -0.015625 L 0.203125 -0.71875 C 0.203125 -0.726562 0.195312 -0.734375 0.1875 -0.734375 L 0.046875 -0.734375 C 0.046875 -0.734375 0.0390625 -0.734375 0.03125 -0.734375 C 0.03125 -0.734375 0.03125 -0.738281 0.03125 -0.75 L 0.03125 -0.84375 C 0.0390625 -0.851562 0.046875 -0.859375 0.046875 -0.859375 Z M 0.5 -0.859375 "/></g></g></g><g fill="#f8f8f0" fill-opacity="1"><g transform="translate(13.430311, 20.988778)"><g><path d="M 0.484375 -0.75 C 0.484375 -0.738281 0.484375 -0.734375 0.484375 -0.734375 C 0.484375 -0.734375 0.476562 -0.734375 0.46875 -0.734375 L 0.21875 -0.734375 C 0.207031 -0.734375 0.203125 -0.726562 0.203125 -0.71875 L 0.203125 -0.5 C 0.203125 -0.488281 0.207031 -0.484375 0.21875 -0.484375 L 0.375 -0.484375 C 0.382812 -0.484375 0.390625 -0.476562 0.390625 -0.46875 L 0.390625 -0.375 C 0.390625 -0.375 0.382812 -0.367188 0.375 -0.359375 L 0.21875 -0.359375 C 0.207031 -0.359375 0.203125 -0.359375 0.203125 -0.359375 L 0.203125 -0.125 C 0.203125 -0.125 0.207031 -0.125 0.21875 -0.125 L 0.46875 -0.125 C 0.476562 -0.125 0.484375 -0.117188 0.484375 -0.109375 L 0.484375 -0.015625 C 0.484375 -0.015625 0.484375 -0.0078125 0.484375 0 C 0.484375 0 0.476562 0 0.46875 0 L 0.078125 0 C 0.078125 0 0.0703125 0 0.0625 0 C 0.0625 -0.0078125 0.0625 -0.015625 0.0625 -0.015625 L 0.0625 -0.84375 C 0.0703125 -0.851562 0.078125 -0.859375 0.078125 -0.859375 L 0.46875 -0.859375 C 0.476562 -0.859375 0.484375 -0.851562 0.484375 -0.84375 Z M 0.484375 -0.75 "/></g></g></g><g fill="#f8f8f0" fill-opacity="1"><g transform="translate(14.325517, 20.988778)"><g><path d="M 0.078125 0 C 0.078125 0 0.0703125 0 0.0625 0 C 0.0625 -0.0078125 0.0625 -0.015625 0.0625 -0.015625 L 0.0625 -0.84375 C 0.0703125 -0.851562 0.078125 -0.859375 0.078125 -0.859375 L 0.1875 -0.859375 C 0.195312 -0.859375 0.203125 -0.851562 0.203125 -0.84375 L 0.203125 -0.125 C 0.203125 -0.125 0.207031 -0.125 0.21875 -0.125 L 0.46875 -0.125 C 0.476562 -0.125 0.484375 -0.117188 0.484375 -0.109375 L 0.484375 -0.015625 C 0.484375 -0.015625 0.484375 -0.0078125 0.484375 0 C 0.484375 0 0.476562 0 0.46875 0 Z M 0.078125 0 "/></g></g></g><g fill="#f8f8f0" fill-opacity="1"><g transform="translate(15.196298, 20.988778)"><g/></g></g><g fill="#f8f8f0" fill-opacity="1"><g transform="translate(15.804517, 20.988778)"><g><path d="M 0.65625 -0.015625 C 0.65625 -0.00390625 0.648438 0 0.640625 0 L 0.53125 0 C 0.519531 0 0.515625 -0.00390625 0.515625 -0.015625 L 0.46875 -0.0625 C 0.40625 -0.0078125 0.335938 0.015625 0.265625 0.015625 C 0.191406 0.015625 0.132812 0 0.09375 -0.03125 C 0.0507812 -0.0703125 0.03125 -0.128906 0.03125 -0.203125 C 0.03125 -0.253906 0.0390625 -0.296875 0.0625 -0.328125 C 0.09375 -0.367188 0.128906 -0.40625 0.171875 -0.4375 C 0.179688 -0.445312 0.179688 -0.453125 0.171875 -0.453125 C 0.140625 -0.503906 0.113281 -0.539062 0.09375 -0.5625 C 0.0820312 -0.59375 0.078125 -0.625 0.078125 -0.65625 C 0.078125 -0.71875 0.0976562 -0.765625 0.140625 -0.796875 C 0.179688 -0.835938 0.234375 -0.859375 0.296875 -0.859375 C 0.335938 -0.859375 0.375 -0.847656 0.40625 -0.828125 C 0.4375 -0.816406 0.457031 -0.796875 0.46875 -0.765625 C 0.488281 -0.734375 0.5 -0.695312 0.5 -0.65625 C 0.5 -0.601562 0.488281 -0.554688 0.46875 -0.515625 C 0.445312 -0.484375 0.410156 -0.453125 0.359375 -0.421875 C 0.359375 -0.421875 0.359375 -0.414062 0.359375 -0.40625 C 0.367188 -0.40625 0.382812 -0.382812 0.40625 -0.34375 L 0.46875 -0.265625 C 0.476562 -0.265625 0.484375 -0.265625 0.484375 -0.265625 C 0.503906 -0.285156 0.519531 -0.316406 0.53125 -0.359375 C 0.539062 -0.359375 0.550781 -0.359375 0.5625 -0.359375 L 0.640625 -0.3125 C 0.648438 -0.300781 0.648438 -0.296875 0.640625 -0.296875 C 0.617188 -0.242188 0.59375 -0.195312 0.5625 -0.15625 C 0.5625 -0.15625 0.5625 -0.148438 0.5625 -0.140625 C 0.582031 -0.117188 0.613281 -0.078125 0.65625 -0.015625 Z M 0.296875 -0.734375 C 0.273438 -0.734375 0.253906 -0.722656 0.234375 -0.703125 C 0.222656 -0.691406 0.21875 -0.675781 0.21875 -0.65625 C 0.21875 -0.632812 0.222656 -0.613281 0.234375 -0.59375 C 0.242188 -0.582031 0.257812 -0.5625 0.28125 -0.53125 C 0.28125 -0.519531 0.28125 -0.519531 0.28125 -0.53125 C 0.3125 -0.550781 0.332031 -0.566406 0.34375 -0.578125 C 0.351562 -0.597656 0.359375 -0.625 0.359375 -0.65625 C 0.359375 -0.675781 0.351562 -0.691406 0.34375 -0.703125 C 0.332031 -0.722656 0.316406 -0.734375 0.296875 -0.734375 Z M 0.28125 -0.109375 C 0.3125 -0.109375 0.347656 -0.125 0.390625 -0.15625 C 0.390625 -0.15625 0.390625 -0.160156 0.390625 -0.171875 L 0.34375 -0.21875 L 0.265625 -0.328125 C 0.265625 -0.335938 0.257812 -0.34375 0.25 -0.34375 C 0.207031 -0.300781 0.1875 -0.253906 0.1875 -0.203125 C 0.1875 -0.179688 0.191406 -0.160156 0.203125 -0.140625 C 0.222656 -0.117188 0.25 -0.109375 0.28125 -0.109375 Z M 0.28125 -0.109375 "/></g></g></g><g fill="#f8f8f0" fill-opacity="1"><g transform="translate(16.87802, 20.988778)"><g/></g></g><g fill="#f8f8f0" fill-opacity="1"><g transform="translate(17.486239, 20.988778)"><g><path d="M 0.40625 0 C 0.394531 0 0.390625 -0.00390625 0.390625 -0.015625 L 0.28125 -0.359375 L 0.21875 -0.359375 C 0.207031 -0.359375 0.203125 -0.359375 0.203125 -0.359375 L 0.203125 -0.015625 C 0.203125 -0.015625 0.203125 -0.0078125 0.203125 0 C 0.203125 0 0.195312 0 0.1875 0 L 0.078125 0 C 0.078125 0 0.0703125 0 0.0625 0 C 0.0625 -0.0078125 0.0625 -0.015625 0.0625 -0.015625 L 0.0625 -0.84375 C 0.0703125 -0.851562 0.078125 -0.859375 0.078125 -0.859375 L 0.3125 -0.859375 C 0.351562 -0.859375 0.390625 -0.847656 0.421875 -0.828125 C 0.453125 -0.804688 0.476562 -0.773438 0.5 -0.734375 C 0.519531 -0.691406 0.53125 -0.648438 0.53125 -0.609375 C 0.53125 -0.554688 0.519531 -0.507812 0.5 -0.46875 C 0.476562 -0.4375 0.453125 -0.410156 0.421875 -0.390625 C 0.410156 -0.390625 0.40625 -0.390625 0.40625 -0.390625 L 0.53125 -0.015625 C 0.53125 -0.00390625 0.523438 0 0.515625 0 Z M 0.21875 -0.734375 C 0.207031 -0.734375 0.203125 -0.726562 0.203125 -0.71875 L 0.203125 -0.484375 C 0.203125 -0.472656 0.207031 -0.46875 0.21875 -0.46875 L 0.28125 -0.46875 C 0.3125 -0.46875 0.335938 -0.476562 0.359375 -0.5 C 0.378906 -0.53125 0.390625 -0.566406 0.390625 -0.609375 C 0.390625 -0.640625 0.378906 -0.664062 0.359375 -0.6875 C 0.335938 -0.71875 0.3125 -0.734375 0.28125 -0.734375 Z M 0.21875 -0.734375 "/></g></g></g><g fill="#f8f8f0" fill-opacity="1"><g transform="translate(18.413195, 20.988778)"><g><path d="M 0.484375 -0.75 C 0.484375 -0.738281 0.484375 -0.734375 0.484375 -0.734375 C 0.484375 -0.734375 0.476562 -0.734375 0.46875 -0.734375 L 0.21875 -0.734375 C 0.207031 -0.734375 0.203125 -0.726562 0.203125 -0.71875 L 0.203125 -0.5 C 0.203125 -0.488281 0.207031 -0.484375 0.21875 -0.484375 L 0.375 -0.484375 C 0.382812 -0.484375 0.390625 -0.476562 0.390625 -0.46875 L 0.390625 -0.375 C 0.390625 -0.375 0.382812 -0.367188 0.375 -0.359375 L 0.21875 -0.359375 C 0.207031 -0.359375 0.203125 -0.359375 0.203125 -0.359375 L 0.203125 -0.125 C 0.203125 -0.125 0.207031 -0.125 0.21875 -0.125 L 0.46875 -0.125 C 0.476562 -0.125 0.484375 -0.117188 0.484375 -0.109375 L 0.484375 -0.015625 C 0.484375 -0.015625 0.484375 -0.0078125 0.484375 0 C 0.484375 0 0.476562 0 0.46875 0 L 0.078125 0 C 0.078125 0 0.0703125 0 0.0625 0 C 0.0625 -0.0078125 0.0625 -0.015625 0.0625 -0.015625 L 0.0625 -0.84375 C 0.0703125 -0.851562 0.078125 -0.859375 0.078125 -0.859375 L 0.46875 -0.859375 C 0.476562 -0.859375 0.484375 -0.851562 0.484375 -0.84375 Z M 0.484375 -0.75 "/></g></g></g><g fill="#f8f8f0" fill-opacity="1"><g transform="translate(19.308401, 20.988778)"><g><path d="M 0.265625 0.015625 C 0.203125 0.015625 0.148438 -0.00390625 0.109375 -0.046875 C 0.0664062 -0.0859375 0.046875 -0.140625 0.046875 -0.203125 L 0.046875 -0.25 C 0.046875 -0.25 0.0507812 -0.25 0.0625 -0.25 L 0.171875 -0.25 C 0.179688 -0.25 0.1875 -0.25 0.1875 -0.25 L 0.1875 -0.21875 C 0.1875 -0.1875 0.191406 -0.160156 0.203125 -0.140625 C 0.222656 -0.117188 0.242188 -0.109375 0.265625 -0.109375 C 0.296875 -0.109375 0.316406 -0.117188 0.328125 -0.140625 C 0.347656 -0.160156 0.359375 -0.1875 0.359375 -0.21875 C 0.359375 -0.238281 0.351562 -0.253906 0.34375 -0.265625 C 0.332031 -0.285156 0.316406 -0.300781 0.296875 -0.3125 C 0.285156 -0.320312 0.257812 -0.34375 0.21875 -0.375 C 0.175781 -0.40625 0.144531 -0.429688 0.125 -0.453125 C 0.101562 -0.472656 0.0820312 -0.5 0.0625 -0.53125 C 0.0390625 -0.5625 0.03125 -0.597656 0.03125 -0.640625 C 0.03125 -0.710938 0.0507812 -0.765625 0.09375 -0.796875 C 0.132812 -0.835938 0.191406 -0.859375 0.265625 -0.859375 C 0.328125 -0.859375 0.378906 -0.835938 0.421875 -0.796875 C 0.460938 -0.753906 0.484375 -0.703125 0.484375 -0.640625 L 0.484375 -0.609375 C 0.484375 -0.597656 0.484375 -0.59375 0.484375 -0.59375 C 0.484375 -0.59375 0.476562 -0.59375 0.46875 -0.59375 L 0.359375 -0.59375 C 0.359375 -0.59375 0.351562 -0.59375 0.34375 -0.59375 C 0.34375 -0.59375 0.34375 -0.597656 0.34375 -0.609375 L 0.34375 -0.640625 C 0.34375 -0.671875 0.332031 -0.691406 0.3125 -0.703125 C 0.300781 -0.722656 0.285156 -0.734375 0.265625 -0.734375 C 0.234375 -0.734375 0.207031 -0.722656 0.1875 -0.703125 C 0.175781 -0.691406 0.171875 -0.671875 0.171875 -0.640625 C 0.171875 -0.609375 0.179688 -0.582031 0.203125 -0.5625 C 0.222656 -0.539062 0.253906 -0.515625 0.296875 -0.484375 C 0.347656 -0.441406 0.382812 -0.410156 0.40625 -0.390625 C 0.4375 -0.367188 0.457031 -0.34375 0.46875 -0.3125 C 0.488281 -0.289062 0.5 -0.257812 0.5 -0.21875 C 0.5 -0.144531 0.476562 -0.0859375 0.4375 -0.046875 C 0.394531 -0.00390625 0.335938 0.015625 0.265625 0.015625 Z M 0.265625 0.015625 "/></g></g></g><g fill="#f8f8f0" fill-opacity="1"><g transform="translate(20.202385, 20.988778)"><g><path d="M 0.5 -0.859375 C 0.507812 -0.859375 0.515625 -0.851562 0.515625 -0.84375 L 0.515625 -0.75 C 0.515625 -0.738281 0.515625 -0.734375 0.515625 -0.734375 C 0.515625 -0.734375 0.507812 -0.734375 0.5 -0.734375 L 0.34375 -0.734375 C 0.34375 -0.734375 0.34375 -0.726562 0.34375 -0.71875 L 0.34375 -0.015625 C 0.34375 -0.015625 0.335938 -0.0078125 0.328125 0 L 0.21875 0 C 0.207031 0 0.203125 0 0.203125 0 C 0.203125 -0.0078125 0.203125 -0.015625 0.203125 -0.015625 L 0.203125 -0.71875 C 0.203125 -0.726562 0.195312 -0.734375 0.1875 -0.734375 L 0.046875 -0.734375 C 0.046875 -0.734375 0.0390625 -0.734375 0.03125 -0.734375 C 0.03125 -0.734375 0.03125 -0.738281 0.03125 -0.75 L 0.03125 -0.84375 C 0.0390625 -0.851562 0.046875 -0.859375 0.046875 -0.859375 Z M 0.5 -0.859375 "/></g></g></g><g fill="#f8f8f0" fill-opacity="1"><g transform="translate(21.118349, 20.988778)"><g><path d="M 0.40625 0 C 0.394531 0 0.390625 -0.00390625 0.390625 -0.015625 L 0.375 -0.140625 C 0.375 -0.140625 0.367188 -0.140625 0.359375 -0.140625 L 0.1875 -0.140625 L 0.15625 -0.015625 C 0.15625 -0.00390625 0.148438 0 0.140625 0 L 0.03125 0 C 0.0195312 0 0.015625 -0.00390625 0.015625 -0.015625 L 0.203125 -0.84375 C 0.203125 -0.851562 0.207031 -0.859375 0.21875 -0.859375 L 0.34375 -0.859375 C 0.351562 -0.859375 0.359375 -0.851562 0.359375 -0.84375 L 0.53125 -0.015625 C 0.53125 -0.00390625 0.53125 0 0.53125 0 Z M 0.203125 -0.265625 L 0.34375 -0.265625 L 0.28125 -0.65625 C 0.28125 -0.65625 0.273438 -0.65625 0.265625 -0.65625 Z M 0.203125 -0.265625 "/></g></g></g><g fill="#f8f8f0" fill-opacity="1"><g transform="translate(22.0392, 20.988778)"><g><path d="M 0.296875 0.015625 C 0.222656 0.015625 0.164062 -0.00390625 0.125 -0.046875 C 0.0820312 -0.0976562 0.0625 -0.160156 0.0625 -0.234375 L 0.0625 -0.84375 C 0.0625 -0.851562 0.0664062 -0.859375 0.078125 -0.859375 L 0.1875 -0.859375 C 0.1875 -0.859375 0.1875 -0.851562 0.1875 -0.84375 C 0.195312 -0.84375 0.203125 -0.84375 0.203125 -0.84375 L 0.203125 -0.21875 C 0.203125 -0.1875 0.207031 -0.160156 0.21875 -0.140625 C 0.238281 -0.117188 0.265625 -0.109375 0.296875 -0.109375 C 0.316406 -0.109375 0.332031 -0.117188 0.34375 -0.140625 C 0.363281 -0.160156 0.375 -0.1875 0.375 -0.21875 L 0.375 -0.84375 C 0.382812 -0.851562 0.390625 -0.859375 0.390625 -0.859375 L 0.5 -0.859375 C 0.507812 -0.859375 0.515625 -0.851562 0.515625 -0.84375 L 0.515625 -0.234375 C 0.515625 -0.160156 0.492188 -0.0976562 0.453125 -0.046875 C 0.410156 -0.00390625 0.359375 0.015625 0.296875 0.015625 Z M 0.296875 0.015625 "/></g></g></g><g fill="#f8f8f0" fill-opacity="1"><g transform="translate(22.986916, 20.988778)"><g><path d="M 0.40625 0 C 0.394531 0 0.390625 -0.00390625 0.390625 -0.015625 L 0.28125 -0.359375 L 0.21875 -0.359375 C 0.207031 -0.359375 0.203125 -0.359375 0.203125 -0.359375 L 0.203125 -0.015625 C 0.203125 -0.015625 0.203125 -0.0078125 0.203125 0 C 0.203125 0 0.195312 0 0.1875 0 L 0.078125 0 C 0.078125 0 0.0703125 0 0.0625 0 C 0.0625 -0.0078125 0.0625 -0.015625 0.0625 -0.015625 L 0.0625 -0.84375 C 0.0703125 -0.851562 0.078125 -0.859375 0.078125 -0.859375 L 0.3125 -0.859375 C 0.351562 -0.859375 0.390625 -0.847656 0.421875 -0.828125 C 0.453125 -0.804688 0.476562 -0.773438 0.5 -0.734375 C 0.519531 -0.691406 0.53125 -0.648438 0.53125 -0.609375 C 0.53125 -0.554688 0.519531 -0.507812 0.5 -0.46875 C 0.476562 -0.4375 0.453125 -0.410156 0.421875 -0.390625 C 0.410156 -0.390625 0.40625 -0.390625 0.40625 -0.390625 L 0.53125 -0.015625 C 0.53125 -0.00390625 0.523438 0 0.515625 0 Z M 0.21875 -0.734375 C 0.207031 -0.734375 0.203125 -0.726562 0.203125 -0.71875 L 0.203125 -0.484375 C 0.203125 -0.472656 0.207031 -0.46875 0.21875 -0.46875 L 0.28125 -0.46875 C 0.3125 -0.46875 0.335938 -0.476562 0.359375 -0.5 C 0.378906 -0.53125 0.390625 -0.566406 0.390625 -0.609375 C 0.390625 -0.640625 0.378906 -0.664062 0.359375 -0.6875 C 0.335938 -0.71875 0.3125 -0.734375 0.28125 -0.734375 Z M 0.21875 -0.734375 "/></g></g></g><g fill="#f8f8f0" fill-opacity="1"><g transform="translate(23.913872, 20.988778)"><g><path d="M 0.40625 0 C 0.394531 0 0.390625 -0.00390625 0.390625 -0.015625 L 0.375 -0.140625 C 0.375 -0.140625 0.367188 -0.140625 0.359375 -0.140625 L 0.1875 -0.140625 L 0.15625 -0.015625 C 0.15625 -0.00390625 0.148438 0 0.140625 0 L 0.03125 0 C 0.0195312 0 0.015625 -0.00390625 0.015625 -0.015625 L 0.203125 -0.84375 C 0.203125 -0.851562 0.207031 -0.859375 0.21875 -0.859375 L 0.34375 -0.859375 C 0.351562 -0.859375 0.359375 -0.851562 0.359375 -0.84375 L 0.53125 -0.015625 C 0.53125 -0.00390625 0.53125 0 0.53125 0 Z M 0.203125 -0.265625 L 0.34375 -0.265625 L 0.28125 -0.65625 C 0.28125 -0.65625 0.273438 -0.65625 0.265625 -0.65625 Z M 0.203125 -0.265625 "/></g></g></g><g fill="#f8f8f0" fill-opacity="1"><g transform="translate(24.834722, 20.988778)"><g><path d="M 0.40625 -0.84375 C 0.414062 -0.851562 0.421875 -0.859375 0.421875 -0.859375 L 0.53125 -0.859375 C 0.539062 -0.859375 0.546875 -0.851562 0.546875 -0.84375 L 0.546875 -0.015625 C 0.546875 -0.015625 0.546875 -0.0078125 0.546875 0 C 0.546875 0 0.539062 0 0.53125 0 L 0.40625 0 C 0.394531 0 0.390625 -0.00390625 0.390625 -0.015625 L 0.21875 -0.53125 C 0.207031 -0.53125 0.203125 -0.53125 0.203125 -0.53125 L 0.203125 -0.015625 C 0.203125 -0.015625 0.203125 -0.0078125 0.203125 0 C 0.203125 0 0.195312 0 0.1875 0 L 0.078125 0 C 0.078125 0 0.0703125 0 0.0625 0 C 0.0625 -0.0078125 0.0625 -0.015625 0.0625 -0.015625 L 0.0625 -0.84375 C 0.0703125 -0.851562 0.078125 -0.859375 0.078125 -0.859375 L 0.203125 -0.859375 C 0.210938 -0.859375 0.21875 -0.851562 0.21875 -0.84375 L 0.40625 -0.328125 Z M 0.40625 -0.84375 "/></g></g></g><g fill="#f8f8f0" fill-opacity="1"><g transform="translate(25.817854, 20.988778)"><g><path d="M 0.5 -0.859375 C 0.507812 -0.859375 0.515625 -0.851562 0.515625 -0.84375 L 0.515625 -0.75 C 0.515625 -0.738281 0.515625 -0.734375 0.515625 -0.734375 C 0.515625 -0.734375 0.507812 -0.734375 0.5 -0.734375 L 0.34375 -0.734375 C 0.34375 -0.734375 0.34375 -0.726562 0.34375 -0.71875 L 0.34375 -0.015625 C 0.34375 -0.015625 0.335938 -0.0078125 0.328125 0 L 0.21875 0 C 0.207031 0 0.203125 0 0.203125 0 C 0.203125 -0.0078125 0.203125 -0.015625 0.203125 -0.015625 L 0.203125 -0.71875 C 0.203125 -0.726562 0.195312 -0.734375 0.1875 -0.734375 L 0.046875 -0.734375 C 0.046875 -0.734375 0.0390625 -0.734375 0.03125 -0.734375 C 0.03125 -0.734375 0.03125 -0.738281 0.03125 -0.75 L 0.03125 -0.84375 C 0.0390625 -0.851562 0.046875 -0.859375 0.046875 -0.859375 Z M 0.5 -0.859375 "/></g></g></g></svg>