<svg xmlns="http://www.w3.org/2000/svg" xmlns:xlink="http://www.w3.org/1999/xlink" width="100" zoomAndPan="magnify" viewBox="0 0 75 30.000001" height="40" preserveAspectRatio="xMidYMid meet" version="1.0"><defs><g/><clipPath id="a51324b80a"><path d="M 33 8 L 49 8 L 49 29.03125 L 33 29.03125 Z M 33 8 " clip-rule="nonzero"/></clipPath></defs><g fill="#000000" fill-opacity="1"><g transform="translate(-2.458952, 25.128169)"><g><path d="M 8.53125 2.125 C 7.738281 1.851562 7.09375 1.535156 6.59375 1.171875 C 6.101562 0.816406 5.695312 0.234375 5.375 -0.578125 C 4.96875 -1.710938 4.765625 -3.054688 4.765625 -4.609375 C 4.765625 -6.109375 4.851562 -7.382812 5.03125 -8.4375 C 5.207031 -9.488281 5.507812 -10.5625 5.9375 -11.65625 L 6.28125 -12.453125 C 6.6875 -13.492188 6.976562 -14.175781 7.15625 -14.5 C 7.59375 -15.5 8.351562 -16.785156 9.4375 -18.359375 C 10.40625 -19.828125 11.164062 -20.894531 11.71875 -21.5625 C 12.28125 -22.238281 12.820312 -22.78125 13.34375 -23.1875 C 13.863281 -23.59375 14.820312 -24.28125 16.21875 -25.25 C 16.800781 -25.675781 17.472656 -25.890625 18.234375 -25.890625 C 18.867188 -25.890625 19.457031 -25.726562 20 -25.40625 C 20.550781 -25.09375 20.96875 -24.644531 21.25 -24.0625 C 21.53125 -23.582031 21.671875 -22.9375 21.671875 -22.125 C 21.671875 -20.976562 21.414062 -19.78125 20.90625 -18.53125 C 20.394531 -17.289062 19.75 -16.316406 18.96875 -15.609375 C 18.707031 -15.378906 18.460938 -15.265625 18.234375 -15.265625 C 17.960938 -15.265625 17.597656 -15.46875 17.140625 -15.875 C 16.910156 -16.3125 16.78125 -16.566406 16.75 -16.640625 C 16.726562 -16.710938 16.78125 -16.765625 16.90625 -16.796875 C 17.132812 -17.078125 17.46875 -17.613281 17.90625 -18.40625 C 18.351562 -19.207031 18.65625 -19.835938 18.8125 -20.296875 C 18.863281 -20.453125 18.914062 -20.707031 18.96875 -21.0625 C 19.164062 -21.945312 19.265625 -22.539062 19.265625 -22.84375 C 19.265625 -23.144531 19.175781 -23.390625 19 -23.578125 C 18.925781 -23.648438 18.828125 -23.6875 18.703125 -23.6875 C 18.492188 -23.6875 18.132812 -23.554688 17.625 -23.296875 C 17.019531 -23.046875 16.25 -22.472656 15.3125 -21.578125 C 14.375 -20.691406 13.519531 -19.734375 12.75 -18.703125 C 11.582031 -17.171875 10.6875 -15.910156 10.0625 -14.921875 C 9.445312 -13.929688 8.972656 -12.929688 8.640625 -11.921875 L 8.21875 -10.921875 C 8.25 -10.828125 8.210938 -10.578125 8.109375 -10.171875 C 8.003906 -9.765625 7.890625 -9.429688 7.765625 -9.171875 C 7.410156 -7.703125 7.234375 -6.242188 7.234375 -4.796875 C 7.234375 -3.703125 7.328125 -2.734375 7.515625 -1.890625 C 7.710938 -1.054688 7.988281 -0.488281 8.34375 -0.1875 C 8.539062 -0.0078125 8.84375 0.078125 9.25 0.078125 C 9.757812 0.078125 10.390625 -0.046875 11.140625 -0.296875 C 11.890625 -0.554688 12.8125 -0.925781 13.90625 -1.40625 C 14.488281 -1.632812 15.035156 -1.898438 15.546875 -2.203125 C 16.066406 -2.515625 16.457031 -2.796875 16.71875 -3.046875 C 17.375 -3.523438 17.90625 -3.765625 18.3125 -3.765625 C 18.59375 -3.867188 18.785156 -3.921875 18.890625 -3.921875 C 18.941406 -3.921875 18.972656 -3.890625 18.984375 -3.828125 C 18.992188 -3.765625 19 -3.679688 19 -3.578125 C 19 -3.222656 18.804688 -2.835938 18.421875 -2.421875 C 18.046875 -2.003906 17.539062 -1.601562 16.90625 -1.21875 C 16.394531 -0.707031 15.785156 -0.3125 15.078125 -0.03125 C 14.265625 0.550781 13.316406 1.066406 12.234375 1.515625 C 11.160156 1.972656 10.179688 2.203125 9.296875 2.203125 C 9.085938 2.203125 8.832031 2.175781 8.53125 2.125 Z M 8.53125 2.125 "/></g></g></g><g fill="#000000" fill-opacity="1"><g transform="translate(15.896655, 25.128169)"><g><path d="M 4.078125 -1.375 C 3.992188 -1.519531 3.867188 -1.675781 3.703125 -1.84375 C 3.546875 -2.007812 3.46875 -2.117188 3.46875 -2.171875 C 3.46875 -2.453125 3.40625 -2.664062 3.28125 -2.8125 C 3.226562 -2.863281 3.203125 -2.976562 3.203125 -3.15625 C 3.203125 -3.5625 3.394531 -4.253906 3.78125 -5.234375 C 4.175781 -6.210938 4.691406 -7.273438 5.328125 -8.421875 C 5.484375 -8.566406 5.679688 -8.828125 5.921875 -9.203125 C 6.160156 -9.585938 6.316406 -9.804688 6.390625 -9.859375 C 6.390625 -9.960938 6.425781 -10.054688 6.5 -10.140625 C 6.582031 -10.234375 6.675781 -10.28125 6.78125 -10.28125 L 6.78125 -10.515625 C 6.78125 -10.742188 7.195312 -11.296875 8.03125 -12.171875 C 8.875 -13.046875 9.5625 -13.644531 10.09375 -13.96875 C 10.726562 -14.40625 11.375 -14.625 12.03125 -14.625 C 12.488281 -14.625 12.882812 -14.492188 13.21875 -14.234375 C 13.34375 -14.085938 13.925781 -13.546875 14.96875 -12.609375 L 16.375 -11.34375 L 15.6875 -9.4375 C 15.457031 -8.757812 15.34375 -8.140625 15.34375 -7.578125 C 15.34375 -6.609375 15.625 -5.679688 16.1875 -4.796875 C 16.3125 -4.515625 16.5625 -4.25 16.9375 -4 C 17.320312 -3.75 17.707031 -3.597656 18.09375 -3.546875 C 18.644531 -3.441406 18.921875 -3.160156 18.921875 -2.703125 C 18.921875 -2.191406 18.691406 -1.890625 18.234375 -1.796875 C 18.140625 -1.765625 17.988281 -1.75 17.78125 -1.75 C 16.28125 -1.75 14.988281 -2.800781 13.90625 -4.90625 C 13.800781 -5.0625 13.664062 -5.34375 13.5 -5.75 C 13.332031 -6.15625 13.238281 -6.4375 13.21875 -6.59375 C 13.0625 -6.382812 12.867188 -6.140625 12.640625 -5.859375 C 12.410156 -5.578125 12.195312 -5.335938 12 -5.140625 C 9.226562 -2.367188 7.039062 -0.984375 5.4375 -0.984375 C 4.9375 -0.984375 4.484375 -1.113281 4.078125 -1.375 Z M 5.4375 -3.5 C 5.4375 -3.375 5.570312 -3.335938 5.84375 -3.390625 C 6.113281 -3.441406 6.441406 -3.566406 6.828125 -3.765625 C 7.222656 -3.972656 7.625 -4.238281 8.03125 -4.5625 C 10.21875 -6.445312 11.789062 -8.085938 12.75 -9.484375 L 13.59375 -10.859375 C 13.34375 -11.390625 13.078125 -11.773438 12.796875 -12.015625 C 12.515625 -12.253906 12.257812 -12.375 12.03125 -12.375 C 11.5 -12.375 10.660156 -11.707031 9.515625 -10.375 C 8.378906 -9.039062 7.335938 -7.472656 6.390625 -5.671875 C 6.160156 -5.242188 5.957031 -4.804688 5.78125 -4.359375 C 5.601562 -3.910156 5.488281 -3.625 5.4375 -3.5 Z M 5.4375 -3.5 "/></g></g></g><g clip-path="url(#a51324b80a)"><g fill="#000000" fill-opacity="1"><g transform="translate(32.538561, 25.128169)"><g><path d="M 2.015625 8.5625 C 1.816406 8.5625 1.648438 8.445312 1.515625 8.21875 C 1.390625 8.039062 1.328125 7.828125 1.328125 7.578125 C 1.328125 7.398438 1.390625 6.96875 1.515625 6.28125 C 1.796875 5.21875 1.9375 4.484375 1.9375 4.078125 C 1.9375 3.953125 1.960938 3.765625 2.015625 3.515625 C 2.066406 3.273438 2.101562 3.054688 2.125 2.859375 C 2.226562 2.679688 2.320312 2.40625 2.40625 2.03125 C 2.5 1.664062 2.546875 1.34375 2.546875 1.0625 C 2.546875 0.9375 2.585938 0.789062 2.671875 0.625 C 2.765625 0.457031 2.878906 0.328125 3.015625 0.234375 C 3.015625 0.078125 3.050781 -0.15625 3.125 -0.46875 C 3.195312 -0.789062 3.25 -1.015625 3.28125 -1.140625 C 3.40625 -1.828125 3.894531 -3.453125 4.75 -6.015625 C 5.613281 -8.578125 6.351562 -10.644531 6.96875 -12.21875 C 7.25 -12.851562 7.453125 -13.4375 7.578125 -13.96875 C 7.703125 -14.507812 7.765625 -14.929688 7.765625 -15.234375 C 7.765625 -15.335938 7.796875 -15.429688 7.859375 -15.515625 C 7.921875 -15.609375 8.03125 -15.726562 8.1875 -15.875 C 8.363281 -16.050781 8.53125 -16.140625 8.6875 -16.140625 C 8.8125 -16.140625 8.945312 -16.085938 9.09375 -15.984375 C 9.25 -15.890625 9.40625 -15.78125 9.5625 -15.65625 C 9.707031 -15.425781 9.820312 -15.207031 9.90625 -15 C 10 -14.800781 10.046875 -14.585938 10.046875 -14.359375 C 10.046875 -14.273438 10.019531 -14.03125 9.96875 -13.625 C 9.96875 -13.09375 9.851562 -12.65625 9.625 -12.3125 C 9.40625 -11.96875 9.320312 -11.8125 9.375 -11.84375 C 10.507812 -12.375 11.519531 -12.640625 12.40625 -12.640625 C 13.476562 -12.640625 14.3125 -12.296875 14.90625 -11.609375 C 15.5 -10.921875 15.796875 -10.035156 15.796875 -8.953125 C 15.796875 -8.492188 15.660156 -7.941406 15.390625 -7.296875 C 15.128906 -6.648438 14.875 -6.210938 14.625 -5.984375 C 14.46875 -5.984375 14.265625 -5.710938 14.015625 -5.171875 C 13.679688 -4.765625 13.132812 -4.335938 12.375 -3.890625 C 11.613281 -3.453125 11.082031 -3.285156 10.78125 -3.390625 C 10.75 -3.390625 10.707031 -3.375 10.65625 -3.34375 C 10.601562 -3.320312 10.578125 -3.257812 10.578125 -3.15625 C 10.578125 -3.0625 10.144531 -2.875 9.28125 -2.59375 C 8.425781 -2.3125 7.71875 -2.171875 7.15625 -2.171875 C 6.851562 -2.171875 6.625 -2.1875 6.46875 -2.21875 C 6.320312 -2.257812 6.171875 -2.34375 6.015625 -2.46875 C 5.835938 -2.289062 5.75 -2.128906 5.75 -1.984375 C 5.75 -1.703125 5.617188 -1.191406 5.359375 -0.453125 C 5.109375 0.273438 4.910156 0.640625 4.765625 0.640625 C 4.734375 0.671875 4.695312 0.722656 4.65625 0.796875 C 4.625 0.867188 4.660156 0.957031 4.765625 1.0625 C 4.765625 1.144531 4.75 1.320312 4.71875 1.59375 C 4.695312 1.875 4.632812 2.09375 4.53125 2.25 C 4.53125 2.476562 4.488281 2.785156 4.40625 3.171875 C 4.332031 3.566406 4.25 3.867188 4.15625 4.078125 C 4.15625 4.378906 4.109375 4.675781 4.015625 4.96875 C 3.929688 5.257812 3.835938 5.40625 3.734375 5.40625 C 3.578125 5.457031 3.5 5.828125 3.5 6.515625 C 3.476562 7.148438 3.351562 7.644531 3.125 8 C 2.894531 8.351562 2.628906 8.53125 2.328125 8.53125 Z M 6.9375 -4.1875 C 7.3125 -4.1875 8.078125 -4.382812 9.234375 -4.78125 C 10.390625 -5.175781 11.195312 -5.5625 11.65625 -5.9375 C 12.1875 -6.394531 12.613281 -6.882812 12.9375 -7.40625 C 13.269531 -7.925781 13.4375 -8.453125 13.4375 -8.984375 C 13.4375 -9.390625 13.320312 -9.757812 13.09375 -10.09375 C 12.914062 -10.375 12.613281 -10.515625 12.1875 -10.515625 C 11.675781 -10.515625 11.070312 -10.332031 10.375 -9.96875 C 9.675781 -9.613281 9.035156 -9.144531 8.453125 -8.5625 C 7.992188 -8.101562 7.585938 -7.445312 7.234375 -6.59375 C 6.878906 -5.75 6.703125 -5.085938 6.703125 -4.609375 C 6.703125 -4.328125 6.78125 -4.1875 6.9375 -4.1875 Z M 6.9375 -4.1875 "/></g></g></g></g><g fill="#000000" fill-opacity="1"><g transform="translate(46.933619, 25.128169)"><g><path d="M 4.53125 -1.328125 C 4.332031 -1.484375 4.191406 -1.625 4.109375 -1.75 C 4.035156 -1.875 4 -2.066406 4 -2.328125 C 4 -2.554688 4.007812 -2.742188 4.03125 -2.890625 C 4.113281 -3.753906 4.304688 -4.757812 4.609375 -5.90625 L 4.796875 -6.65625 C 4.867188 -7.289062 5.3125 -8.625 6.125 -10.65625 C 6.9375 -12.6875 7.597656 -14.070312 8.109375 -14.8125 C 8.316406 -14.9375 8.535156 -15 8.765625 -15 C 9.085938 -15 9.363281 -14.882812 9.59375 -14.65625 C 9.75 -14.550781 9.828125 -14.363281 9.828125 -14.09375 C 9.828125 -13.832031 9.726562 -13.453125 9.53125 -12.953125 C 9.34375 -12.460938 9.019531 -11.738281 8.5625 -10.78125 C 8.46875 -10.570312 8.296875 -10.1875 8.046875 -9.625 C 7.804688 -9.070312 7.6875 -8.742188 7.6875 -8.640625 C 7.6875 -8.585938 7.703125 -8.5625 7.734375 -8.5625 C 7.785156 -8.5625 7.832031 -8.582031 7.875 -8.625 C 7.925781 -8.664062 7.976562 -8.695312 8.03125 -8.71875 C 8.3125 -9.195312 8.988281 -9.851562 10.0625 -10.6875 C 11.144531 -11.53125 11.890625 -12.054688 12.296875 -12.265625 C 12.472656 -12.359375 12.703125 -12.457031 12.984375 -12.5625 C 13.265625 -12.664062 13.457031 -12.742188 13.5625 -12.796875 C 13.96875 -12.992188 14.445312 -13.09375 15 -13.09375 C 15.351562 -13.09375 15.660156 -13.035156 15.921875 -12.921875 C 16.191406 -12.804688 16.378906 -12.632812 16.484375 -12.40625 C 16.515625 -12.226562 16.585938 -12.085938 16.703125 -11.984375 C 16.816406 -11.890625 16.894531 -11.828125 16.9375 -11.796875 C 17.019531 -11.796875 17.070312 -11.765625 17.09375 -11.703125 C 17.125 -11.640625 17.140625 -11.597656 17.140625 -11.578125 C 17.140625 -11.398438 17.035156 -11.289062 16.828125 -11.25 C 16.628906 -11.207031 16.257812 -11.175781 15.71875 -11.15625 C 15.445312 -11.132812 15.15625 -11.070312 14.84375 -10.96875 C 14.539062 -10.863281 14.238281 -10.734375 13.9375 -10.578125 C 12.507812 -9.773438 11.445312 -9.144531 10.75 -8.6875 C 10.050781 -8.226562 9.347656 -7.601562 8.640625 -6.8125 C 8.359375 -6.507812 7.992188 -5.960938 7.546875 -5.171875 C 7.359375 -4.992188 7.171875 -4.53125 6.984375 -3.78125 C 6.796875 -3.039062 6.703125 -2.582031 6.703125 -2.40625 C 6.671875 -2.320312 6.617188 -2.171875 6.546875 -1.953125 C 6.472656 -1.742188 6.359375 -1.535156 6.203125 -1.328125 C 5.898438 -0.921875 5.644531 -0.71875 5.4375 -0.71875 C 5.21875 -0.71875 4.914062 -0.921875 4.53125 -1.328125 Z M 4.53125 -1.328125 "/></g></g></g><g fill="#000000" fill-opacity="1"><g transform="translate(60.643205, 25.128169)"><g><path d="M 7.921875 -16.671875 C 7.742188 -16.847656 7.585938 -17.148438 7.453125 -17.578125 C 7.328125 -18.015625 7.332031 -18.234375 7.46875 -18.234375 C 7.664062 -18.265625 7.894531 -18.488281 8.15625 -18.90625 C 8.425781 -19.320312 8.550781 -19.671875 8.53125 -19.953125 C 8.53125 -20.054688 8.566406 -20.148438 8.640625 -20.234375 C 8.722656 -20.328125 8.8125 -20.382812 8.90625 -20.40625 C 9.113281 -20.53125 9.289062 -20.59375 9.4375 -20.59375 C 9.875 -20.59375 10.269531 -20.289062 10.625 -19.6875 C 10.78125 -19.351562 10.859375 -19.0625 10.859375 -18.8125 C 10.859375 -18.582031 10.789062 -18.347656 10.65625 -18.109375 C 10.53125 -17.867188 10.300781 -17.554688 9.96875 -17.171875 C 9.539062 -16.585938 9.140625 -16.296875 8.765625 -16.296875 C 8.503906 -16.296875 8.222656 -16.421875 7.921875 -16.671875 Z M 4.234375 -1.21875 C 3.867188 -1.570312 3.6875 -2.078125 3.6875 -2.734375 C 3.6875 -3.097656 3.753906 -3.40625 3.890625 -3.65625 C 3.890625 -3.78125 3.910156 -3.929688 3.953125 -4.109375 C 4.003906 -4.285156 4.03125 -4.398438 4.03125 -4.453125 C 4.007812 -4.609375 4.113281 -5.03125 4.34375 -5.71875 C 4.800781 -6.726562 5.410156 -8.515625 6.171875 -11.078125 C 6.171875 -11.203125 6.21875 -11.304688 6.3125 -11.390625 C 6.414062 -11.484375 6.570312 -11.546875 6.78125 -11.578125 C 6.976562 -11.628906 7.117188 -11.65625 7.203125 -11.65625 C 7.347656 -11.65625 7.476562 -11.597656 7.59375 -11.484375 C 7.707031 -11.367188 7.867188 -11.160156 8.078125 -10.859375 C 8.222656 -10.703125 8.296875 -10.472656 8.296875 -10.171875 C 8.296875 -9.679688 8.132812 -9.097656 7.8125 -8.421875 C 7.476562 -7.679688 7.257812 -7.046875 7.15625 -6.515625 C 6.851562 -5.828125 6.613281 -5.191406 6.4375 -4.609375 C 6.382812 -4.453125 6.304688 -4.144531 6.203125 -3.6875 C 6.097656 -3.238281 5.957031 -2.875 5.78125 -2.59375 C 5.632812 -1.875 5.492188 -1.375 5.359375 -1.09375 C 5.234375 -0.820312 5.097656 -0.6875 4.953125 -0.6875 C 4.773438 -0.6875 4.535156 -0.863281 4.234375 -1.21875 Z M 4.234375 -1.21875 "/></g></g></g></svg>